<svg xmlns="http://www.w3.org/2000/svg" viewBox="0 0 16 16" fill="white" shape-rendering="geometricPrecision" text-rendering="geometricPrecision" style="background-color:transparent">
  <style>
    #s1_to {animation: s1_to__to 700ms linear infinite normal forwards}
    @keyframes s1_to__to { 0% {transform: translate(4px,4px);animation-timing-function: cubic-bezier(0.77,0,0.175,1)} 85.714286% {transform: translate(12px,4px)} 100% {transform: translate(12px,4px)}}
    #s1_tr {animation: s1_tr__tr 700ms linear infinite normal forwards}
    @keyframes s1_tr__tr { 0% {transform: rotate(0deg);animation-timing-function: cubic-bezier(0.77,0,0.175,1)} 85.714286% {transform: rotate(90deg)} 100% {transform: rotate(90deg)}}

    #s2_to {animation: s2_to__to 700ms linear infinite normal forwards}
    @keyframes s2_to__to { 0% {transform: translate(12px,12px);animation-timing-function: cubic-bezier(0.77,0,0.175,1)} 85.714286% {transform: translate(4px,12px)} 100% {transform: translate(4px,12px)}}
    #s2_tr {animation: s2_tr__tr 700ms linear infinite normal forwards}
    @keyframes s2_tr__tr { 0% {transform: rotate(0deg);animation-timing-function: cubic-bezier(0.77,0,0.175,1)} 85.714286% {transform: rotate(90deg)} 100% {transform: rotate(90deg)}}

    #s3_to {animation: s3_to__to 700ms linear infinite normal forwards}
    @keyframes s3_to__to { 0% {transform: translate(4px,12px);animation-timing-function: cubic-bezier(0.77,0,0.175,1)} 85.714286% {transform: translate(4px,4px)} 100% {transform: translate(4px,4px)}}
    #s3_tr {animation: s3_tr__tr 700ms linear infinite normal forwards}
    @keyframes s3_tr__tr { 0% {transform: rotate(0deg);animation-timing-function: cubic-bezier(0.77,0,0.175,1)} 85.714286% {transform: rotate(90deg)} 100% {transform: rotate(90deg)}}

    #s4_to {animation: s4_to__to 700ms linear infinite normal forwards}
    @keyframes s4_to__to { 0% {transform: translate(12px,4px);animation-timing-function: cubic-bezier(0.77,0,0.175,1)} 85.714286% {transform: translate(12px,12px)} 100% {transform: translate(12px,12px)}}
    #s4_tr {animation: s4_tr__tr 700ms linear infinite normal forwards}
    @keyframes s4_tr__tr { 0% {transform: rotate(0deg);animation-timing-function: cubic-bezier(0.77,0,0.175,1)} 85.714286% {transform: rotate(90deg)} 100% {transform: rotate(90deg)}}
  </style>
  <g>
    <g id="s1_to" transform="translate(4,4)">
      <g id="s1_tr" transform="rotate(0)">
        <g transform="translate(-4,-4)">
          <path d="M8,4C8,6.209138,6.209138,8,4,8C4,8,0,8,0,8s0-4,0-4C0,1.790859,1.790859,0,4,0s4,1.790859,4,4Z" fill="white" stroke-width="0"/>
        </g>
      </g>
    </g>
  </g>
  <g>
    <g id="s2_to" transform="translate(12,12)">
      <g id="s2_tr" transform="rotate(0)">
        <g transform="translate(-4,-4)">
          <path d="M0,4C0,1.790862,1.790862,0,4,0C4,0,8,0,8,0s0,4,0,4C8,6.209138,6.209138,8,4,8s-4-1.790862-4-4Z" fill="white" stroke-width="0"/>
        </g>
      </g>
    </g>
  </g>
  <g>
    <g id="s3_to" transform="translate(4,12)">
      <g id="s3_tr" transform="rotate(0)">
        <g transform="translate(-4,-4)">
          <path d="M0,4C0,1.790862,1.790859,0,4,0s4,1.790862,4,4C8,4,8,8,8,8s-4,0-4,0C1.790859,8,0,6.209138,0,4Z" fill="white" stroke-width="0"/>
        </g>
      </g>
    </g>
  </g>
  <g>
    <g id="s4_to" transform="translate(12,4)">
      <g id="s4_tr" transform="rotate(0)">
        <g transform="translate(-4,-4)">
          <path d="M8,4C8,6.209138,6.209138,8,4,8s-4-1.790862-4-4C0,4,0,0,0,0s4,0,4,0C6.209138,0,8,1.790859,8,4Z" fill="white" stroke-width="0"/>
        </g>
      </g>
    </g>
  </g>
</svg>
