<svg role="img" aria-label="Slack Thread" width="118" height="28" viewBox="0 0 118 28" xmlns="http://www.w3.org/2000/svg"><defs>
    <linearGradient id="shd" x1="0" y1="0" x2="0" y2="1">
      <stop offset="0" stop-color="#fff" stop-opacity=".5"/>
      <stop offset=".1" stop-color="#fff" stop-opacity=".1"/>
      <stop offset=".9" stop-color="#000" stop-opacity=".2"/>
      <stop offset="1" stop-color="#000" stop-opacity=".35"/>
    </linearGradient>
  </defs><style><![CDATA[
    .bg { fill: #4A154B; }
    .shade { fill: url(#shd); }
    @media (prefers-color-scheme: dark) {
      .bg { fill: #611f69; }
    }
  ]]></style><mask id="satori_om-id"><rect x="0" y="0" width="118" height="28" fill="#fff"/></mask><path x="0" y="0" width="118" height="28" class="bg" d="M6,0 h106 a6,6 0 0 1 6,6 v16 a6,6 0 0 1 -6,6 h-106 a6,6 0 0 1 -6,-6 v-16 a6,6 0 0 1 6,-6"/><rect width="118" height="28" rx="6" class="shade"/><clipPath id="satori_cp-id-0"><rect x="10" y="5" width="18" height="18"/></clipPath><mask id="satori_om-id-0"><rect x="10" y="5" width="18" height="18" fill="#fff"/></mask><g transform="translate(10, 5)"><svg width="18" height="18" viewBox="0 0 128 128" fill="none"><path d="M27.255 80.719c0 7.33-5.978 13.317-13.309 13.317C6.616 94.036.63 88.049.63 80.719s5.987-13.317 13.317-13.317h13.309zm6.709 0c0-7.33 5.987-13.317 13.317-13.317s13.317 5.986 13.317 13.317v33.335c0 7.33-5.986 13.317-13.317 13.317-7.33 0-13.317-5.987-13.317-13.317z" fill="white"/><path d="M47.281 27.255c-7.33 0-13.317-5.978-13.317-13.309C33.964 6.616 39.951.63 47.281.63s13.317 5.987 13.317 13.317v13.309zm0 6.709c7.33 0 13.317 5.987 13.317 13.317s-5.986 13.317-13.317 13.317H13.946C6.616 60.598.63 54.612.63 47.281c0-7.33 5.987-13.317 13.317-13.317z" fill="white"/><path d="M100.745 47.281c0-7.33 5.978-13.317 13.309-13.317 7.33 0 13.317 5.987 13.317 13.317s-5.987 13.317-13.317 13.317h-13.309zm-6.709 0c0 7.33-5.987 13.317-13.317 13.317s-13.317-5.986-13.317-13.317V13.946C67.402 6.616 73.388.63 80.719.63c7.33 0 13.317 5.987 13.317 13.317z" fill="white"/><path d="M80.719 100.745c7.33 0 13.317 5.978 13.317 13.309 0 7.33-5.987 13.317-13.317 13.317s-13.317-5.987-13.317-13.317v-13.309zm0-6.709c-7.33 0-13.317-5.987-13.317-13.317s5.986-13.317 13.317-13.317h33.335c7.33 0 13.317 5.986 13.317 13.317 0 7.33-5.987 13.317-13.317 13.317z" fill="white"/></svg></g><mask id="satori_om-id-0-0"><rect x="10" y="5" width="0" height="18" fill="#fff"/></mask><mask id="satori_om-id-0-1"><rect x="10" y="5" width="0" height="18" fill="#fff"/></mask><mask id="satori_om-id-0-2"><rect x="10" y="5" width="0" height="18" fill="#fff"/></mask><mask id="satori_om-id-0-3"><rect x="10" y="5" width="0" height="18" fill="#fff"/></mask><mask id="satori_om-id-1"><rect x="34" y="-2" width="74" height="32" fill="#fff"/></mask><g  ><path fill="white" d="M61.6 4.0L60.2 4.0Q60.1 3.4 59.6 3.0Q59.1 2.6 58.2 2.6L58.2 2.6Q57.4 2.6 56.9 3.0Q56.3 3.4 56.3 4.0L56.3 4.0Q56.3 4.3 56.5 4.5Q56.6 4.7 56.7 4.9Q56.9 5.0 57.1 5.2Q57.4 5.3 57.6 5.4Q57.8 5.4 58.1 5.5L58.1 5.5L59.0 5.7Q61.7 6.4 61.7 8.4L61.7 8.4Q61.7 9.6 60.8 10.4Q59.8 11.2 58.2 11.2L58.2 11.2Q56.6 11.2 55.7 10.4Q54.7 9.7 54.7 8.4L54.7 8.4L56.1 8.4Q56.2 9.1 56.7 9.5Q57.3 9.9 58.2 9.9L58.2 9.9Q59.1 9.9 59.7 9.5Q60.3 9.1 60.3 8.4L60.3 8.4Q60.3 8.1 60.2 7.9Q60.1 7.7 60.0 7.6Q59.8 7.4 59.6 7.3Q59.3 7.2 59.1 7.1Q58.8 7.0 58.5 6.9L58.5 6.9L57.4 6.6Q54.9 6.0 54.9 4.1L54.9 4.1Q54.9 3.3 55.4 2.7Q55.8 2.1 56.6 1.8Q57.3 1.4 58.3 1.4L58.3 1.4Q59.7 1.4 60.6 2.2Q61.5 2.9 61.6 4.0L61.6 4.0ZM63.3 1.5L64.7 1.5L64.7 11L63.3 11L63.3 1.5ZM68.6 11.2L68.6 11.2Q67.9 11.2 67.4 10.9Q66.8 10.7 66.5 10.2Q66.2 9.7 66.2 9.0L66.2 9.0Q66.2 8.7 66.3 8.4Q66.4 8.1 66.5 7.9Q66.6 7.7 66.8 7.5Q67.1 7.4 67.3 7.3Q67.5 7.2 67.8 7.1Q68.1 7.0 68.3 7.0Q68.6 6.9 68.9 6.9L68.9 6.9Q69.1 6.9 69.3 6.8L69.3 6.8Q69.6 6.8 69.8 6.8Q69.9 6.8 70.1 6.7Q70.3 6.7 70.4 6.7Q70.5 6.6 70.6 6.6Q70.7 6.5 70.7 6.4Q70.7 6.3 70.7 6.2L70.7 6.2L70.7 6.2Q70.7 5.6 70.4 5.3Q70.0 4.9 69.4 4.9L69.4 4.9Q68.7 4.9 68.3 5.2Q67.9 5.5 67.7 5.9L67.7 5.9L66.4 5.6Q66.6 5.2 66.9 4.8Q67.2 4.4 67.6 4.2Q68.0 4.0 68.4 3.9Q68.8 3.8 69.3 3.8L69.3 3.8Q69.7 3.8 70.1 3.9Q70.4 3.9 70.8 4.1Q71.2 4.3 71.5 4.5Q71.7 4.8 71.9 5.2Q72.1 5.7 72.1 6.3L72.1 6.3L72.1 11L70.7 11L70.7 10.0L70.7 10.0Q70.6 10.2 70.4 10.4Q70.2 10.6 70.0 10.8Q69.7 11.0 69.4 11.1Q69.0 11.2 68.6 11.2ZM68.9 10.0L68.9 10.0Q69.7 10.0 70.2 9.6Q70.7 9.1 70.7 8.4L70.7 8.4L70.7 7.5Q70.7 7.6 70.6 7.6Q70.5 7.6 70.4 7.7Q70.2 7.7 70.1 7.7Q70.0 7.8 69.8 7.8Q69.6 7.8 69.5 7.8Q69.4 7.9 69.2 7.9L69.2 7.9L69.0 7.9Q68.7 7.9 68.4 8.0Q68.2 8.1 68.0 8.2Q67.8 8.3 67.7 8.5Q67.5 8.7 67.5 9.0L67.5 9.0Q67.5 9.5 67.9 9.8Q68.3 10.0 68.9 10.0ZM76.9 11.1L76.9 11.1Q75.9 11.1 75.2 10.7Q74.4 10.2 74.0 9.4Q73.6 8.6 73.6 7.5L73.6 7.5Q73.6 6.4 74.0 5.6Q74.4 4.7 75.2 4.3Q75.9 3.8 76.9 3.8L76.9 3.8Q78.1 3.8 78.9 4.5Q79.7 5.1 79.8 6.2L79.8 6.2L78.5 6.2Q78.4 5.7 78.0 5.3Q77.6 5.0 76.9 5.0L76.9 5.0Q76.1 5.0 75.5 5.6Q75.0 6.3 75.0 7.5L75.0 7.5Q75.0 8.6 75.5 9.3Q76.0 10.0 76.9 10.0L76.9 10.0Q77.5 10.0 77.9 9.7Q78.4 9.3 78.5 8.8L78.5 8.8L79.8 8.8Q79.7 9.8 78.9 10.5Q78.1 11.1 76.9 11.1ZM82.7 11L81.3 11L81.3 1.5L82.7 1.5L82.7 6.9L82.8 6.9L85.6 3.9L87.3 3.9L84.4 7.0L87.5 11L85.8 11L83.4 7.8L82.7 8.5L82.7 11Z M52.5 18.8L49.6 18.8L49.6 17.5L56.9 17.5L56.9 18.8L53.9 18.8L53.9 27L52.5 27L52.5 18.8ZM59.8 22.8L59.8 22.8L59.8 27L58.4 27L58.4 17.5L59.8 17.5L59.8 21.1L59.8 21.1Q60.4 19.8 61.9 19.8L61.9 19.8Q63.1 19.8 63.7 20.5Q64.4 21.2 64.4 22.5L64.4 22.5L64.4 27L63.0 27L63.0 22.7Q63.0 21.9 62.6 21.4Q62.2 21.0 61.5 21.0L61.5 21.0Q60.7 21.0 60.2 21.5Q59.8 22.0 59.8 22.8ZM67.6 27L66.2 27L66.2 19.9L67.5 19.9L67.5 21.0L67.6 21.0Q67.8 20.5 68.3 20.1Q68.8 19.8 69.4 19.8L69.4 19.8Q69.8 19.8 70.0 19.8L70.0 19.8L70.0 21.2Q69.7 21.1 69.3 21.1L69.3 21.1Q68.6 21.1 68.1 21.5Q67.6 22.0 67.6 22.7L67.6 22.7L67.6 27ZM74.0 27.1L74.0 27.1Q73.0 27.1 72.2 26.7Q71.4 26.2 71.0 25.4Q70.6 24.6 70.6 23.5L70.6 23.5Q70.6 22.7 70.9 22.0Q71.1 21.3 71.5 20.8Q72.0 20.4 72.6 20.1Q73.2 19.8 73.9 19.8L73.9 19.8Q74.4 19.8 74.9 19.9Q75.3 20.1 75.7 20.3Q76.1 20.6 76.4 21.0Q76.7 21.4 76.9 22.0Q77.0 22.6 77.0 23.4L77.0 23.4L77.0 23.9L72.0 23.9Q72.0 24.9 72.6 25.4Q73.1 26.0 74.0 26.0L74.0 26.0Q74.6 26.0 75.0 25.7Q75.5 25.5 75.7 25.0L75.7 25.0L77.0 25.2Q76.7 26.1 75.9 26.6Q75.2 27.1 74.0 27.1ZM72.0 22.8L72.0 22.8L75.7 22.8Q75.7 22.0 75.2 21.5Q74.7 21.0 73.9 21.0L73.9 21.0Q73.1 21.0 72.6 21.5Q72.1 22.1 72.0 22.8ZM80.7 27.2L80.7 27.2Q80.0 27.2 79.4 26.9Q78.9 26.7 78.6 26.2Q78.3 25.7 78.3 25.0L78.3 25.0Q78.3 24.7 78.3 24.4Q78.4 24.1 78.6 23.9Q78.7 23.7 78.9 23.5Q79.1 23.4 79.3 23.3Q79.6 23.2 79.8 23.1Q80.1 23.0 80.4 23.0Q80.7 22.9 81.0 22.9L81.0 22.9Q81.1 22.9 81.4 22.8L81.4 22.8Q81.7 22.8 81.8 22.8Q82.0 22.8 82.2 22.7Q82.4 22.7 82.4 22.7Q82.5 22.6 82.6 22.6Q82.7 22.5 82.7 22.4Q82.8 22.3 82.8 22.2L82.8 22.2L82.8 22.2Q82.8 21.6 82.4 21.3Q82.1 20.9 81.4 20.9L81.4 20.9Q80.8 20.9 80.4 21.2Q79.9 21.5 79.8 21.9L79.8 21.9L78.5 21.6Q78.6 21.2 78.9 20.8Q79.2 20.4 79.6 20.2Q80.0 20.0 80.5 19.9Q80.9 19.8 81.4 19.8L81.4 19.8Q81.8 19.8 82.1 19.9Q82.5 19.9 82.9 20.1Q83.2 20.3 83.5 20.5Q83.8 20.8 84.0 21.2Q84.1 21.7 84.1 22.3L84.1 22.3L84.1 27L82.8 27L82.8 26.0L82.7 26.0Q82.6 26.2 82.5 26.4Q82.3 26.6 82.0 26.8Q81.8 27.0 81.4 27.1Q81.1 27.2 80.7 27.2ZM81.0 26.0L81.0 26.0Q81.8 26.0 82.3 25.6Q82.8 25.1 82.8 24.4L82.8 24.4L82.8 23.5Q82.7 23.6 82.6 23.6Q82.6 23.6 82.4 23.7Q82.3 23.7 82.2 23.7Q82.1 23.8 81.9 23.8Q81.6 23.8 81.6 23.8Q81.5 23.9 81.3 23.9L81.3 23.9L81.1 23.9Q80.7 23.9 80.5 24.0Q80.2 24.1 80.0 24.2Q79.8 24.3 79.7 24.5Q79.6 24.7 79.6 25.0L79.6 25.0Q79.6 25.5 80.0 25.8Q80.3 26.0 81.0 26.0ZM88.6 27.1L88.6 27.1Q88.0 27.1 87.5 26.9Q86.9 26.6 86.5 26.2Q86.1 25.7 85.9 25.0Q85.7 24.3 85.7 23.5Q85.7 22.6 85.9 21.9Q86.1 21.2 86.5 20.8Q86.9 20.3 87.5 20.1Q88.0 19.8 88.7 19.8L88.7 19.8Q89.0 19.8 89.3 19.9Q89.7 20.0 89.9 20.1Q90.1 20.2 90.2 20.4Q90.4 20.6 90.5 20.8Q90.6 20.9 90.7 21.1L90.7 21.1L90.8 21.1L90.8 17.5L92.2 17.5L92.2 27L90.8 27L90.8 25.9L90.7 25.9Q90.6 26.1 90.5 26.2Q90.4 26.3 90.2 26.5Q90.1 26.7 89.8 26.8Q89.6 27.0 89.3 27.0Q89.0 27.1 88.6 27.1ZM88.9 26.0L88.9 26.0Q89.8 26.0 90.3 25.3Q90.8 24.6 90.8 23.5L90.8 23.5Q90.8 22.3 90.3 21.7Q89.8 21.0 88.9 21.0L88.9 21.0Q88.3 21.0 87.9 21.3Q87.5 21.6 87.3 22.2Q87.1 22.7 87.1 23.5L87.1 23.5Q87.1 24.2 87.3 24.7Q87.5 25.3 87.9 25.6Q88.3 26.0 88.9 26.0Z "/></g></svg>