<svg width="121" height="28" viewBox="0 0 121 28" xmlns="http://www.w3.org/2000/svg" role="img" aria-label="Slack Thread">
  <title>Slack Thread</title>
  <defs>
    <clipPath id="border-clip"><path d="M4,0 h113 a4,4 0 0 1 4,4 v20 a4,4 0 0 1 -4,4 h-113 a4,4 0 0 1 -4,-4 v-20 a4,4 0 0 1 4,-4"/></clipPath>
  </defs>
  <style><![CDATA[
    .bg { fill: #F0F0F0; }
    .border { stroke: rgba(0,0,0,0.1); }
    .fg { fill: #000000; }
    @media (prefers-color-scheme: dark) {
      .bg { fill: #212121; }
      .border { stroke: rgba(255,255,255,0.08); }
      .fg { fill: #FFFFFF; }
    }
  ]]></style>
  <path d="M4,0 h113 a4,4 0 0 1 4,4 v20 a4,4 0 0 1 -4,4 h-113 a4,4 0 0 1 -4,-4 v-20 a4,4 0 0 1 4,-4" class="bg"/>
  <path d="M4,1 h113 a3,3 0 0 1 3,3 v20 a3,3 0 0 1 -3,3 h-113 a3,3 0 0 1 -3,-3 v-20 a3,3 0 0 1 3,-3" fill="none" class="border" stroke-width="2" clip-path="url(#border-clip)"/>
  <svg x="9" y="7" width="14" height="14" viewBox="0 0 128 128" fill="none"><path d="M27.255 80.719c0 7.33-5.978 13.317-13.309 13.317C6.616 94.036.63 88.049.63 80.719s5.987-13.317 13.317-13.317h13.309zm6.709 0c0-7.33 5.987-13.317 13.317-13.317s13.317 5.986 13.317 13.317v33.335c0 7.33-5.986 13.317-13.317 13.317-7.33 0-13.317-5.987-13.317-13.317z" class="fg"/><path d="M47.281 27.255c-7.33 0-13.317-5.978-13.317-13.309C33.964 6.616 39.951.63 47.281.63s13.317 5.987 13.317 13.317v13.309zm0 6.709c7.33 0 13.317 5.987 13.317 13.317s-5.986 13.317-13.317 13.317H13.946C6.616 60.598.63 54.612.63 47.281c0-7.33 5.987-13.317 13.317-13.317z" class="fg"/><path d="M100.745 47.281c0-7.33 5.978-13.317 13.309-13.317 7.33 0 13.317 5.987 13.317 13.317s-5.987 13.317-13.317 13.317h-13.309zm-6.709 0c0 7.33-5.987 13.317-13.317 13.317s-13.317-5.986-13.317-13.317V13.946C67.402 6.616 73.388.63 80.719.63c7.33 0 13.317 5.987 13.317 13.317z" class="fg"/><path d="M80.719 100.745c7.33 0 13.317 5.978 13.317 13.309 0 7.33-5.987 13.317-13.317 13.317s-13.317-5.987-13.317-13.317v-13.309zm0-6.709c-7.33 0-13.317-5.987-13.317-13.317s5.986-13.317 13.317-13.317h33.335c7.33 0 13.317 5.986 13.317 13.317 0 7.33-5.987 13.317-13.317 13.317z" class="fg"/></svg>
  <path d="M38.6 12.0L37.2 12.0Q37.1 11.4 36.6 11.0Q36.1 10.6 35.2 10.6L35.2 10.6Q34.4 10.6 33.9 11.0Q33.3 11.4 33.3 12.0L33.3 12.0Q33.3 12.3 33.5 12.5Q33.6 12.7 33.7 12.9Q33.9 13.0 34.1 13.2Q34.4 13.3 34.6 13.4Q34.8 13.4 35.1 13.5L35.1 13.5L36.0 13.7Q38.7 14.4 38.7 16.4L38.7 16.4Q38.7 17.6 37.8 18.4Q36.8 19.2 35.2 19.2L35.2 19.2Q33.6 19.2 32.7 18.4Q31.7 17.7 31.7 16.4L31.7 16.4L33.1 16.4Q33.2 17.1 33.7 17.5Q34.3 17.9 35.2 17.9L35.2 17.9Q36.1 17.9 36.7 17.5Q37.3 17.1 37.3 16.4L37.3 16.4Q37.3 16.1 37.2 15.9Q37.1 15.7 37.0 15.6Q36.8 15.4 36.6 15.3Q36.3 15.2 36.1 15.1Q35.8 15.0 35.5 14.9L35.5 14.9L34.4 14.6Q31.9 14.0 31.9 12.1L31.9 12.1Q31.9 11.3 32.4 10.7Q32.8 10.1 33.6 9.8Q34.3 9.4 35.3 9.4L35.3 9.4Q36.7 9.4 37.6 10.2Q38.5 10.9 38.6 12.0L38.6 12.0ZM40.3 9.5L41.7 9.5L41.7 19L40.3 19L40.3 9.5ZM45.6 19.2L45.6 19.2Q44.9 19.2 44.4 18.9Q43.8 18.7 43.5 18.2Q43.2 17.7 43.2 17.0L43.2 17.0Q43.2 16.7 43.3 16.4Q43.4 16.1 43.5 15.9Q43.6 15.7 43.8 15.5Q44.1 15.4 44.3 15.3Q44.5 15.2 44.8 15.1Q45.1 15.0 45.3 15.0Q45.6 14.9 45.9 14.9L45.9 14.9Q46.1 14.9 46.3 14.8L46.3 14.8Q46.6 14.8 46.8 14.8Q46.9 14.8 47.1 14.7Q47.3 14.7 47.4 14.7Q47.5 14.6 47.6 14.6Q47.7 14.5 47.7 14.4Q47.7 14.3 47.7 14.2L47.7 14.2L47.7 14.2Q47.7 13.6 47.4 13.3Q47.0 12.9 46.4 12.9L46.4 12.9Q45.7 12.9 45.3 13.2Q44.9 13.5 44.7 13.9L44.7 13.9L43.4 13.6Q43.6 13.2 43.9 12.8Q44.2 12.4 44.6 12.2Q45.0 12.0 45.4 11.9Q45.8 11.8 46.3 11.8L46.3 11.8Q46.7 11.8 47.1 11.9Q47.4 11.9 47.8 12.1Q48.2 12.3 48.5 12.5Q48.7 12.8 48.9 13.2Q49.1 13.7 49.1 14.3L49.1 14.3L49.1 19L47.7 19L47.7 18.0L47.7 18.0Q47.6 18.2 47.4 18.4Q47.2 18.6 47.0 18.8Q46.7 19.0 46.4 19.1Q46.0 19.2 45.6 19.2ZM45.9 18.0L45.9 18.0Q46.7 18.0 47.2 17.6Q47.7 17.1 47.7 16.4L47.7 16.4L47.7 15.5Q47.7 15.6 47.6 15.6Q47.5 15.6 47.4 15.7Q47.2 15.7 47.1 15.7Q47.0 15.8 46.8 15.8Q46.6 15.8 46.5 15.8Q46.4 15.9 46.2 15.9L46.2 15.9L46.0 15.9Q45.7 15.9 45.4 16.0Q45.2 16.1 45.0 16.2Q44.8 16.3 44.7 16.5Q44.5 16.7 44.5 17.0L44.5 17.0Q44.5 17.5 44.9 17.8Q45.3 18.0 45.9 18.0ZM53.9 19.1L53.9 19.1Q52.9 19.1 52.2 18.7Q51.4 18.2 51.0 17.4Q50.6 16.6 50.6 15.5L50.6 15.5Q50.6 14.4 51.0 13.6Q51.4 12.7 52.2 12.3Q52.9 11.8 53.9 11.8L53.9 11.8Q55.1 11.8 55.9 12.5Q56.7 13.1 56.8 14.2L56.8 14.2L55.5 14.2Q55.4 13.7 55.0 13.3Q54.6 13.0 53.9 13.0L53.9 13.0Q53.1 13.0 52.5 13.6Q52.0 14.3 52.0 15.5L52.0 15.5Q52.0 16.6 52.5 17.3Q53.0 18.0 53.9 18.0L53.9 18.0Q54.5 18.0 54.9 17.7Q55.4 17.3 55.5 16.8L55.5 16.8L56.8 16.8Q56.7 17.8 55.9 18.5Q55.1 19.1 53.9 19.1ZM59.7 19L58.3 19L58.3 9.5L59.7 9.5L59.7 14.9L59.8 14.9L62.6 11.9L64.3 11.9L61.4 15.0L64.5 19L62.8 19L60.4 15.8L59.7 16.5L59.7 19Z M71.6 10.8L68.6 10.8L68.6 9.5L76.0 9.5L76.0 10.8L73.0 10.8L73.0 19L71.6 19L71.6 10.8ZM78.8 14.8L78.8 14.8L78.8 19L77.5 19L77.5 9.5L78.8 9.5L78.8 13.1L78.9 13.1Q79.4 11.8 81.0 11.8L81.0 11.8Q82.1 11.8 82.8 12.5Q83.4 13.2 83.4 14.5L83.4 14.5L83.4 19L82.0 19L82.0 14.7Q82.0 13.9 81.6 13.4Q81.2 13.0 80.5 13.0L80.5 13.0Q79.8 13.0 79.3 13.5Q78.8 14.0 78.8 14.8ZM86.7 19L85.3 19L85.3 11.9L86.6 11.9L86.6 13.0L86.7 13.0Q86.9 12.5 87.4 12.1Q87.9 11.8 88.5 11.8L88.5 11.8Q88.8 11.8 89.1 11.8L89.1 11.8L89.1 13.2Q88.8 13.1 88.4 13.1L88.4 13.1Q87.6 13.1 87.1 13.5Q86.7 14.0 86.7 14.7L86.7 14.7L86.7 19ZM93.1 19.1L93.1 19.1Q92.0 19.1 91.3 18.7Q90.5 18.2 90.1 17.4Q89.7 16.6 89.7 15.5L89.7 15.5Q89.7 14.7 89.9 14.0Q90.2 13.3 90.6 12.8Q91.0 12.4 91.6 12.1Q92.2 11.8 93.0 11.8L93.0 11.8Q93.5 11.8 93.9 11.9Q94.4 12.1 94.8 12.3Q95.2 12.6 95.5 13.0Q95.8 13.4 95.9 14.0Q96.1 14.6 96.1 15.4L96.1 15.4L96.1 15.9L91.1 15.9Q91.1 16.9 91.6 17.4Q92.2 18.0 93.1 18.0L93.1 18.0Q93.7 18.0 94.1 17.7Q94.5 17.5 94.7 17.0L94.7 17.0L96.0 17.2Q95.8 18.1 95.0 18.6Q94.2 19.1 93.1 19.1ZM91.1 14.8L91.1 14.8L94.8 14.8Q94.8 14.0 94.3 13.5Q93.8 13.0 93.0 13.0L93.0 13.0Q92.2 13.0 91.6 13.5Q91.1 14.1 91.1 14.8ZM99.7 19.2L99.7 19.2Q99.0 19.2 98.5 18.9Q98.0 18.7 97.6 18.2Q97.3 17.7 97.3 17.0L97.3 17.0Q97.3 16.7 97.4 16.4Q97.5 16.1 97.6 15.9Q97.8 15.7 98.0 15.5Q98.2 15.4 98.4 15.3Q98.6 15.2 98.9 15.1Q99.2 15.0 99.5 15.0Q99.7 14.9 100.0 14.9L100.0 14.9Q100.2 14.9 100.4 14.8L100.4 14.8Q100.8 14.8 100.9 14.8Q101.0 14.8 101.2 14.7Q101.4 14.7 101.5 14.7Q101.6 14.6 101.7 14.6Q101.8 14.5 101.8 14.4Q101.8 14.3 101.8 14.2L101.8 14.2L101.8 14.2Q101.8 13.6 101.5 13.3Q101.1 12.9 100.5 12.9L100.5 12.9Q99.8 12.9 99.4 13.2Q99.0 13.5 98.8 13.9L98.8 13.9L97.5 13.6Q97.7 13.2 98.0 12.8Q98.3 12.4 98.7 12.2Q99.1 12.0 99.5 11.9Q100.0 11.8 100.5 11.8L100.5 11.8Q100.8 11.8 101.2 11.9Q101.5 11.9 101.9 12.1Q102.3 12.3 102.6 12.5Q102.8 12.8 103.0 13.2Q103.2 13.7 103.2 14.3L103.2 14.3L103.2 19L101.9 19L101.9 18.0L101.8 18.0Q101.7 18.2 101.5 18.4Q101.4 18.6 101.1 18.8Q100.9 19.0 100.5 19.1Q100.1 19.2 99.7 19.2ZM100.0 18.0L100.0 18.0Q100.8 18.0 101.3 17.6Q101.8 17.1 101.8 16.4L101.8 16.4L101.8 15.5Q101.8 15.6 101.7 15.6Q101.6 15.6 101.5 15.7Q101.3 15.7 101.2 15.7Q101.1 15.8 100.9 15.8Q100.7 15.8 100.6 15.8Q100.6 15.9 100.3 15.9L100.3 15.9L100.1 15.9Q99.8 15.9 99.6 16.0Q99.3 16.1 99.1 16.2Q98.9 16.3 98.8 16.5Q98.7 16.7 98.7 17.0L98.7 17.0Q98.7 17.5 99.0 17.8Q99.4 18.0 100.0 18.0ZM107.7 19.1L107.7 19.1Q107.1 19.1 106.5 18.9Q106.0 18.6 105.6 18.2Q105.2 17.7 105.0 17.0Q104.7 16.3 104.7 15.5Q104.7 14.6 105.0 13.9Q105.2 13.2 105.6 12.8Q106.0 12.3 106.5 12.1Q107.1 11.8 107.7 11.8L107.7 11.8Q108.1 11.8 108.4 11.9Q108.7 12.0 108.9 12.1Q109.1 12.2 109.3 12.4Q109.5 12.6 109.6 12.8Q109.6 12.9 109.8 13.1L109.8 13.1L109.8 13.1L109.8 9.5L111.2 9.5L111.2 19L109.9 19L109.9 17.9L109.8 17.9Q109.7 18.1 109.6 18.2Q109.5 18.3 109.3 18.5Q109.1 18.7 108.9 18.8Q108.7 19.0 108.4 19.0Q108.1 19.1 107.7 19.1ZM108.0 18.0L108.0 18.0Q108.9 18.0 109.4 17.3Q109.9 16.6 109.9 15.5L109.9 15.5Q109.9 14.3 109.4 13.7Q108.9 13.0 108.0 13.0L108.0 13.0Q107.4 13.0 107.0 13.3Q106.5 13.6 106.3 14.2Q106.1 14.7 106.1 15.5L106.1 15.5Q106.1 16.2 106.3 16.7Q106.5 17.3 107.0 17.6Q107.4 18.0 108.0 18.0Z " class="fg"/>
</svg>
