<svg xmlns="http://www.w3.org/2000/svg" width="101" height="20" role="img" aria-label="Slack Thread"><title>Slack Thread</title><style><![CDATA[.bg{fill:#4A154B}.ico{fill:#fff}.txt{fill:#fff}.shadow{fill:#000;fill-opacity:.3}@media(prefers-color-scheme:dark){.bg{fill:#611f69}.ico{fill:#fff}.txt{fill:#fff}.shadow{fill:#000;fill-opacity:.3}}]]></style><linearGradient id="s" x2="0" y2="100%"><stop offset="0" stop-color="#bbb" stop-opacity=".1"/><stop offset="1" stop-opacity=".1"/></linearGradient><clipPath id="r"><rect width="101" height="20" rx="3" fill="#fff"/></clipPath><g clip-path="url(#r)"><rect width="101" height="20" class="bg"/><rect width="101" height="20" fill="url(#s)"/></g><g text-anchor="middle" font-family="Verdana,Geneva,DejaVu Sans,sans-serif" text-rendering="geometricPrecision" font-size="110"><g transform="translate(4,3)"><svg width="14" height="14" viewBox="0 0 128 128" fill="none"><path d="M27.255 80.719c0 7.33-5.978 13.317-13.309 13.317C6.616 94.036.63 88.049.63 80.719s5.987-13.317 13.317-13.317h13.309zm6.709 0c0-7.33 5.987-13.317 13.317-13.317s13.317 5.986 13.317 13.317v33.335c0 7.33-5.986 13.317-13.317 13.317-7.33 0-13.317-5.987-13.317-13.317z" class="ico"/><path d="M47.281 27.255c-7.33 0-13.317-5.978-13.317-13.309C33.964 6.616 39.951.63 47.281.63s13.317 5.987 13.317 13.317v13.309zm0 6.709c7.33 0 13.317 5.987 13.317 13.317s-5.986 13.317-13.317 13.317H13.946C6.616 60.598.63 54.612.63 47.281c0-7.33 5.987-13.317 13.317-13.317z" class="ico"/><path d="M100.745 47.281c0-7.33 5.978-13.317 13.309-13.317 7.33 0 13.317 5.987 13.317 13.317s-5.987 13.317-13.317 13.317h-13.309zm-6.709 0c0 7.33-5.987 13.317-13.317 13.317s-13.317-5.986-13.317-13.317V13.946C67.402 6.616 73.388.63 80.719.63c7.33 0 13.317 5.987 13.317 13.317z" class="ico"/><path d="M80.719 100.745c7.33 0 13.317 5.978 13.317 13.309 0 7.33-5.987 13.317-13.317 13.317s-13.317-5.987-13.317-13.317v-13.309zm0-6.709c-7.33 0-13.317-5.987-13.317-13.317s5.986-13.317 13.317-13.317h33.335c7.33 0 13.317 5.986 13.317 13.317 0 7.33-5.987 13.317-13.317 13.317z" class="ico"/></svg></g><text aria-hidden="true" x="585" y="150" class="shadow" transform="scale(.1)" textLength="700">Slack Thread</text><text x="585" y="140" transform="scale(.1)" class="txt" textLength="700">Slack Thread</text></g></svg>
