<svg role="img" aria-label="Slack Thread" width="128" height="28" viewBox="0 0 128 28" xmlns="http://www.w3.org/2000/svg"><title>Slack Thread</title><defs>
    <linearGradient id="shd" x1="0" y1="0" x2="0" y2="1">
      <stop offset="0" stop-color="#fff" stop-opacity=".5"/>
      <stop offset=".1" stop-color="#fff" stop-opacity=".1"/>
      <stop offset=".9" stop-color="#000" stop-opacity=".2"/>
      <stop offset="1" stop-color="#000" stop-opacity=".35"/>
    </linearGradient>
  </defs><style><![CDATA[
    .bg { fill: #4A154B; }
    .shade { fill: url(#shd); }
    @media (prefers-color-scheme: dark) {
      .bg { fill: #611f69; }
    }
  ]]></style><mask id="satori_om-id"><rect x="0" y="0" width="128" height="28" fill="#fff"/></mask><path x="0" y="0" width="128" height="28" class="bg" d="M6,0 h116 a6,6 0 0 1 6,6 v16 a6,6 0 0 1 -6,6 h-116 a6,6 0 0 1 -6,-6 v-16 a6,6 0 0 1 6,-6"/><rect width="128" height="28" rx="6" class="shade"/><clipPath id="satori_cp-id-0"><rect x="10" y="5" width="18" height="18"/></clipPath><mask id="satori_om-id-0"><rect x="10" y="5" width="18" height="18" fill="#fff"/></mask><g transform="translate(10, 5)"><svg width="18" height="18" viewBox="0 0 128 128" fill="none"><path d="M27.255 80.719c0 7.33-5.978 13.317-13.309 13.317C6.616 94.036.63 88.049.63 80.719s5.987-13.317 13.317-13.317h13.309zm6.709 0c0-7.33 5.987-13.317 13.317-13.317s13.317 5.986 13.317 13.317v33.335c0 7.33-5.986 13.317-13.317 13.317-7.33 0-13.317-5.987-13.317-13.317z" fill="white"/><path d="M47.281 27.255c-7.33 0-13.317-5.978-13.317-13.309C33.964 6.616 39.951.63 47.281.63s13.317 5.987 13.317 13.317v13.309zm0 6.709c7.33 0 13.317 5.987 13.317 13.317s-5.986 13.317-13.317 13.317H13.946C6.616 60.598.63 54.612.63 47.281c0-7.33 5.987-13.317 13.317-13.317z" fill="white"/><path d="M100.745 47.281c0-7.33 5.978-13.317 13.309-13.317 7.33 0 13.317 5.987 13.317 13.317s-5.987 13.317-13.317 13.317h-13.309zm-6.709 0c0 7.33-5.987 13.317-13.317 13.317s-13.317-5.986-13.317-13.317V13.946C67.402 6.616 73.388.63 80.719.63c7.33 0 13.317 5.987 13.317 13.317z" fill="white"/><path d="M80.719 100.745c7.33 0 13.317 5.978 13.317 13.309 0 7.33-5.987 13.317-13.317 13.317s-13.317-5.987-13.317-13.317v-13.309zm0-6.709c-7.33 0-13.317-5.987-13.317-13.317s5.986-13.317 13.317-13.317h33.335c7.33 0 13.317 5.986 13.317 13.317 0 7.33-5.987 13.317-13.317 13.317z" fill="white"/></svg></g><mask id="satori_om-id-0-0"><rect x="10" y="5" width="0" height="18" fill="#fff"/></mask><mask id="satori_om-id-0-1"><rect x="10" y="5" width="0" height="18" fill="#fff"/></mask><mask id="satori_om-id-0-2"><rect x="10" y="5" width="0" height="18" fill="#fff"/></mask><mask id="satori_om-id-0-3"><rect x="10" y="5" width="0" height="18" fill="#fff"/></mask><mask id="satori_om-id-1"><rect x="34" y="6" width="84" height="16" fill="#fff"/></mask><mask id="satori_om-id-1-0"><rect x="35" y="6" width="34" height="16" fill="#fff"/></mask><g transform="translate(0,-0.9)"><path fill="white" d="M42.6 12.0L41.2 12.0Q41.1 11.4 40.6 11.0Q40.1 10.6 39.2 10.6L39.2 10.6Q38.4 10.6 37.9 11.0Q37.3 11.4 37.3 12.0L37.3 12.0Q37.3 12.3 37.5 12.5Q37.6 12.7 37.7 12.9Q37.9 13.0 38.1 13.2Q38.4 13.3 38.6 13.4Q38.8 13.4 39.1 13.5L39.1 13.5L40.0 13.7Q42.7 14.4 42.7 16.4L42.7 16.4Q42.7 17.6 41.8 18.4Q40.8 19.2 39.2 19.2L39.2 19.2Q37.6 19.2 36.7 18.4Q35.7 17.7 35.7 16.4L35.7 16.4L37.1 16.4Q37.2 17.1 37.7 17.5Q38.3 17.9 39.2 17.9L39.2 17.9Q40.1 17.9 40.7 17.5Q41.3 17.1 41.3 16.4L41.3 16.4Q41.3 16.1 41.2 15.9Q41.1 15.7 41.0 15.6Q40.8 15.4 40.6 15.3Q40.3 15.2 40.1 15.1Q39.8 15.0 39.5 14.9L39.5 14.9L38.4 14.6Q35.9 14.0 35.9 12.1L35.9 12.1Q35.9 11.3 36.4 10.7Q36.8 10.1 37.6 9.8Q38.3 9.4 39.3 9.4L39.3 9.4Q40.7 9.4 41.6 10.2Q42.5 10.9 42.6 12.0L42.6 12.0ZM44.3 9.5L45.7 9.5L45.7 19L44.3 19L44.3 9.5ZM49.6 19.2L49.6 19.2Q48.9 19.2 48.4 18.9Q47.8 18.7 47.5 18.2Q47.2 17.7 47.2 17.0L47.2 17.0Q47.2 16.7 47.3 16.4Q47.4 16.1 47.5 15.9Q47.6 15.7 47.8 15.5Q48.1 15.4 48.3 15.3Q48.5 15.2 48.8 15.1Q49.1 15.0 49.3 15.0Q49.6 14.9 49.9 14.9L49.9 14.9Q50.1 14.9 50.3 14.8L50.3 14.8Q50.6 14.8 50.8 14.8Q50.9 14.8 51.1 14.7Q51.3 14.7 51.4 14.7Q51.5 14.6 51.6 14.6Q51.7 14.5 51.7 14.4Q51.7 14.3 51.7 14.2L51.7 14.2L51.7 14.2Q51.7 13.6 51.4 13.3Q51.0 12.9 50.4 12.9L50.4 12.9Q49.7 12.9 49.3 13.2Q48.9 13.5 48.7 13.9L48.7 13.9L47.4 13.6Q47.6 13.2 47.9 12.8Q48.2 12.4 48.6 12.2Q49.0 12.0 49.4 11.9Q49.8 11.8 50.3 11.8L50.3 11.8Q50.7 11.8 51.1 11.9Q51.4 11.9 51.8 12.1Q52.2 12.3 52.5 12.5Q52.7 12.8 52.9 13.2Q53.1 13.7 53.1 14.3L53.1 14.3L53.1 19L51.7 19L51.7 18.0L51.7 18.0Q51.6 18.2 51.4 18.4Q51.2 18.6 51.0 18.8Q50.7 19.0 50.4 19.1Q50.0 19.2 49.6 19.2ZM49.9 18.0L49.9 18.0Q50.7 18.0 51.2 17.6Q51.7 17.1 51.7 16.4L51.7 16.4L51.7 15.5Q51.7 15.6 51.6 15.6Q51.5 15.6 51.4 15.7Q51.2 15.7 51.1 15.7Q51.0 15.8 50.8 15.8Q50.6 15.8 50.5 15.8Q50.4 15.9 50.2 15.9L50.2 15.9L50.0 15.9Q49.7 15.9 49.4 16.0Q49.2 16.1 49.0 16.2Q48.8 16.3 48.7 16.5Q48.5 16.7 48.5 17.0L48.5 17.0Q48.5 17.5 48.9 17.8Q49.3 18.0 49.9 18.0ZM57.9 19.1L57.9 19.1Q56.9 19.1 56.2 18.7Q55.4 18.2 55.0 17.4Q54.6 16.6 54.6 15.5L54.6 15.5Q54.6 14.4 55.0 13.6Q55.4 12.7 56.2 12.3Q56.9 11.8 57.9 11.8L57.9 11.8Q59.1 11.8 59.9 12.5Q60.7 13.1 60.8 14.2L60.8 14.2L59.5 14.2Q59.4 13.7 59.0 13.3Q58.6 13.0 57.9 13.0L57.9 13.0Q57.1 13.0 56.5 13.6Q56.0 14.3 56.0 15.5L56.0 15.5Q56.0 16.6 56.5 17.3Q57.0 18.0 57.9 18.0L57.9 18.0Q58.5 18.0 58.9 17.7Q59.4 17.3 59.5 16.8L59.5 16.8L60.8 16.8Q60.7 17.8 59.9 18.5Q59.1 19.1 57.9 19.1ZM63.7 19L62.3 19L62.3 9.5L63.7 9.5L63.7 14.9L63.8 14.9L66.6 11.9L68.3 11.9L65.4 15.0L68.5 19L66.8 19L64.4 15.8L63.7 16.5L63.7 19Z "/></g><mask id="satori_om-id-1-1"><rect x="72" y="6" width="45" height="16" fill="#fff"/></mask><g transform="translate(0,-0.9)"><path fill="white" d="M75.5 10.8L72.6 10.8L72.6 9.5L79.9 9.5L79.9 10.8L76.9 10.8L76.9 19L75.5 19L75.5 10.8ZM82.8 14.8L82.8 14.8L82.8 19L81.4 19L81.4 9.5L82.8 9.5L82.8 13.1L82.8 13.1Q83.4 11.8 84.9 11.8L84.9 11.8Q86.1 11.8 86.7 12.5Q87.4 13.2 87.4 14.5L87.4 14.5L87.4 19L86.0 19L86.0 14.7Q86.0 13.9 85.6 13.4Q85.2 13.0 84.5 13.0L84.5 13.0Q83.7 13.0 83.2 13.5Q82.8 14.0 82.8 14.8ZM90.6 19L89.2 19L89.2 11.9L90.5 11.9L90.5 13.0L90.6 13.0Q90.8 12.5 91.3 12.1Q91.8 11.8 92.4 11.8L92.4 11.8Q92.8 11.8 93.0 11.8L93.0 11.8L93.0 13.2Q92.7 13.1 92.3 13.1L92.3 13.1Q91.6 13.1 91.1 13.5Q90.6 14.0 90.6 14.7L90.6 14.7L90.6 19ZM97.0 19.1L97.0 19.1Q96.0 19.1 95.2 18.7Q94.4 18.2 94.0 17.4Q93.6 16.6 93.6 15.5L93.6 15.5Q93.6 14.7 93.9 14.0Q94.1 13.3 94.5 12.8Q95.0 12.4 95.6 12.1Q96.2 11.8 96.9 11.8L96.9 11.8Q97.4 11.8 97.9 11.9Q98.3 12.1 98.7 12.3Q99.1 12.6 99.4 13.0Q99.7 13.4 99.9 14.0Q100.0 14.6 100.0 15.4L100.0 15.4L100.0 15.9L95.0 15.9Q95.0 16.9 95.6 17.4Q96.1 18.0 97.0 18.0L97.0 18.0Q97.6 18.0 98.0 17.7Q98.5 17.5 98.7 17.0L98.7 17.0L100.0 17.2Q99.7 18.1 98.9 18.6Q98.2 19.1 97.0 19.1ZM95.0 14.8L95.0 14.8L98.7 14.8Q98.7 14.0 98.2 13.5Q97.7 13.0 96.9 13.0L96.9 13.0Q96.1 13.0 95.6 13.5Q95.1 14.1 95.0 14.8ZM103.7 19.2L103.7 19.2Q103.0 19.2 102.4 18.9Q101.9 18.7 101.6 18.2Q101.3 17.7 101.3 17.0L101.3 17.0Q101.3 16.7 101.3 16.4Q101.4 16.1 101.6 15.9Q101.7 15.7 101.9 15.5Q102.1 15.4 102.3 15.3Q102.6 15.2 102.8 15.1Q103.1 15.0 103.4 15.0Q103.7 14.9 104.0 14.9L104.0 14.9Q104.1 14.9 104.4 14.8L104.4 14.8Q104.7 14.8 104.8 14.8Q105.0 14.8 105.2 14.7Q105.4 14.7 105.4 14.7Q105.5 14.6 105.6 14.6Q105.7 14.5 105.7 14.4Q105.8 14.3 105.8 14.2L105.8 14.2L105.8 14.2Q105.8 13.6 105.4 13.3Q105.1 12.9 104.4 12.9L104.4 12.9Q103.8 12.9 103.4 13.2Q102.9 13.5 102.8 13.9L102.8 13.9L101.5 13.6Q101.6 13.2 101.9 12.8Q102.2 12.4 102.6 12.2Q103.0 12.0 103.5 11.9Q103.9 11.8 104.4 11.8L104.4 11.8Q104.8 11.8 105.1 11.9Q105.5 11.9 105.9 12.1Q106.2 12.3 106.5 12.5Q106.8 12.8 107.0 13.2Q107.1 13.7 107.1 14.3L107.1 14.3L107.1 19L105.8 19L105.8 18.0L105.7 18.0Q105.6 18.2 105.5 18.4Q105.3 18.6 105.0 18.8Q104.8 19.0 104.4 19.1Q104.1 19.2 103.7 19.2ZM104.0 18.0L104.0 18.0Q104.8 18.0 105.3 17.6Q105.8 17.1 105.8 16.4L105.8 16.4L105.8 15.5Q105.7 15.6 105.6 15.6Q105.6 15.6 105.4 15.7Q105.3 15.7 105.2 15.7Q105.1 15.8 104.9 15.8Q104.6 15.8 104.6 15.8Q104.5 15.9 104.3 15.9L104.3 15.9L104.1 15.9Q103.7 15.9 103.5 16.0Q103.2 16.1 103.0 16.2Q102.8 16.3 102.7 16.5Q102.6 16.7 102.6 17.0L102.6 17.0Q102.6 17.5 103.0 17.8Q103.3 18.0 104.0 18.0ZM111.6 19.1L111.6 19.1Q111.0 19.1 110.5 18.9Q109.9 18.6 109.5 18.2Q109.1 17.7 108.9 17.0Q108.7 16.3 108.7 15.5Q108.7 14.6 108.9 13.9Q109.1 13.2 109.5 12.8Q109.9 12.3 110.5 12.1Q111.0 11.8 111.7 11.8L111.7 11.8Q112.0 11.8 112.3 11.9Q112.7 12.0 112.9 12.1Q113.1 12.2 113.2 12.4Q113.4 12.6 113.5 12.8Q113.6 12.9 113.7 13.1L113.7 13.1L113.8 13.1L113.8 9.5L115.2 9.5L115.2 19L113.8 19L113.8 17.9L113.7 17.9Q113.6 18.1 113.5 18.2Q113.4 18.3 113.2 18.5Q113.1 18.7 112.8 18.8Q112.6 19.0 112.3 19.0Q112.0 19.1 111.6 19.1ZM111.9 18.0L111.9 18.0Q112.8 18.0 113.3 17.3Q113.8 16.6 113.8 15.5L113.8 15.5Q113.8 14.3 113.3 13.7Q112.8 13.0 111.9 13.0L111.9 13.0Q111.3 13.0 110.9 13.3Q110.5 13.6 110.3 14.2Q110.1 14.7 110.1 15.5L110.1 15.5Q110.1 16.2 110.3 16.7Q110.5 17.3 110.9 17.6Q111.3 18.0 111.9 18.0Z "/></g></svg>
