<svg role="img" aria-label="Slack Thread" width="128" height="28" viewBox="0 0 128 28" xmlns="http://www.w3.org/2000/svg"><title>Slack Thread</title><defs>
    <linearGradient id="shd" x1="0" y1="0" x2="0" y2="1">
      <stop offset="0" stop-color="#fff" stop-opacity=".5"/>
      <stop offset=".1" stop-color="#fff" stop-opacity=".1"/>
      <stop offset=".9" stop-color="#000" stop-opacity=".2"/>
      <stop offset="1" stop-color="#000" stop-opacity=".35"/>
    </linearGradient>
  </defs><style><![CDATA[
    .bg { fill: #4A154B; }
    .shade { fill: url(#shd); }
    @media (prefers-color-scheme: dark) {
      .bg { fill: #611f69; }
    }
  ]]></style><mask id="satori_om-id"><rect x="0" y="0" width="128" height="28" fill="#fff"/></mask><path x="0" y="0" width="128" height="28" class="bg" d="M6,0 h116 a6,6 0 0 1 6,6 v16 a6,6 0 0 1 -6,6 h-488 a6,6 0 0 1 -6,-6 v-16 a6,6 0 0 1 6,-6"/><rect width="128" height="28" rx="6" class="shade"/><clipPath id="satori_cp-id-0"><rect x="10" y="5" width="18" height="18"/></clipPath><mask id="satori_om-id-0"><rect x="10" y="5" width="18" height="18" fill="#fff"/></mask><g transform="translate(10, 5)"><svg width="18" height="18" viewBox="0 0 128 128" fill="none"><path d="M27.255 80.719c0 7.33-5.978 13.317-13.309 13.317C6.616 94.036.63 88.049.63 80.719s5.987-13.317 13.317-13.317h13.309zm6.709 0c0-7.33 5.987-13.317 13.317-13.317s13.317 5.986 13.317 13.317v33.335c0 7.33-5.986 13.317-13.317 13.317-7.33 0-13.317-5.987-13.317-13.317z" fill="white"/><path d="M47.281 27.255c-7.33 0-13.317-5.978-13.317-13.309C33.964 6.616 39.951.63 47.281.63s13.317 5.987 13.317 13.317v13.309zm0 6.709c7.33 0 13.317 5.987 13.317 13.317s-5.986 13.317-13.317 13.317H13.946C6.616 60.598.63 54.612.63 47.281c0-7.33 5.987-13.317 13.317-13.317z" fill="white"/><path d="M100.745 47.281c0-7.33 5.978-13.317 13.309-13.317 7.33 0 13.317 5.987 13.317 13.317s-5.987 13.317-13.317 13.317h-13.309zm-6.709 0c0 7.33-5.987 13.317-13.317 13.317s-13.317-5.986-13.317-13.317V13.946C67.402 6.616 73.388.63 80.719.63c7.33 0 13.317 5.987 13.317 13.317z" fill="white"/><path d="M80.719 100.745c7.33 0 13.317 5.978 13.317 13.309 0 7.33-5.987 13.317-13.317 13.317s-13.317-5.987-13.317-13.317v-13.309zm0-6.709c-7.33 0-13.317-5.987-13.317-13.317s5.986-13.317 13.317-13.317h33.335c7.33 0 13.317 5.986 13.317 13.317 0 7.33-5.987 13.317-13.317 13.317z" fill="white"/></svg></g><mask id="satori_om-id-0-0"><rect x="10" y="5" width="0" height="18" fill="#fff"/></mask><mask id="satori_om-id-0-1"><rect x="10" y="5" width="0" height="18" fill="#fff"/></mask><mask id="satori_om-id-0-2"><rect x="10" y="5" width="0" height="18" fill="#fff"/></mask><mask id="satori_om-id-0-3"><rect x="10" y="5" width="0" height="18" fill="#fff"/></mask><mask id="satori_om-id-1"><rect x="34" y="6" width="82" height="16" fill="#fff"/></mask><g transform="translate(3.5,-0.9)"><path fill="white" d="M41.6 12.0L40.2 12.0Q40.1 11.4 39.6 11.0Q39.1 10.6 38.2 10.6L38.2 10.6Q37.4 10.6 36.9 11.0Q36.3 11.4 36.3 12.0L36.3 12.0Q36.3 12.3 36.5 12.5Q36.6 12.7 36.7 12.9Q36.9 13.0 37.1 13.2Q37.4 13.3 37.6 13.4Q37.8 13.4 38.1 13.5L38.1 13.5L39.0 13.7Q41.7 14.4 41.7 16.4L41.7 16.4Q41.7 17.6 40.8 18.4Q39.8 19.2 38.2 19.2L38.2 19.2Q36.6 19.2 35.7 18.4Q34.7 17.7 34.7 16.4L34.7 16.4L36.1 16.4Q36.2 17.1 36.7 17.5Q37.3 17.9 38.2 17.9L38.2 17.9Q39.1 17.9 39.7 17.5Q40.3 17.1 40.3 16.4L40.3 16.4Q40.3 16.1 40.2 15.9Q40.1 15.7 40.0 15.6Q39.8 15.4 39.6 15.3Q39.3 15.2 39.1 15.1Q38.8 15.0 38.5 14.9L38.5 14.9L37.4 14.6Q34.9 14.0 34.9 12.1L34.9 12.1Q34.9 11.3 35.4 10.7Q35.8 10.1 36.6 9.8Q37.3 9.4 38.3 9.4L38.3 9.4Q39.7 9.4 40.6 10.2Q41.5 10.9 41.6 12.0L41.6 12.0ZM43.3 9.5L44.7 9.5L44.7 19L43.3 19L43.3 9.5ZM48.6 19.2L48.6 19.2Q47.9 19.2 47.4 18.9Q46.8 18.7 46.5 18.2Q46.2 17.7 46.2 17.0L46.2 17.0Q46.2 16.7 46.3 16.4Q46.4 16.1 46.5 15.9Q46.6 15.7 46.8 15.5Q47.1 15.4 47.3 15.3Q47.5 15.2 47.8 15.1Q48.1 15.0 48.3 15.0Q48.6 14.9 48.9 14.9L48.9 14.9Q49.1 14.9 49.3 14.8L49.3 14.8Q49.6 14.8 49.8 14.8Q49.9 14.8 50.1 14.7Q50.3 14.7 50.4 14.7Q50.5 14.6 50.6 14.6Q50.7 14.5 50.7 14.4Q50.7 14.3 50.7 14.2L50.7 14.2L50.7 14.2Q50.7 13.6 50.4 13.3Q50.0 12.9 49.4 12.9L49.4 12.9Q48.7 12.9 48.3 13.2Q47.9 13.5 47.7 13.9L47.7 13.9L46.4 13.6Q46.6 13.2 46.9 12.8Q47.2 12.4 47.6 12.2Q48.0 12.0 48.4 11.9Q48.8 11.8 49.3 11.8L49.3 11.8Q49.7 11.8 50.1 11.9Q50.4 11.9 50.8 12.1Q51.2 12.3 51.5 12.5Q51.7 12.8 51.9 13.2Q52.1 13.7 52.1 14.3L52.1 14.3L52.1 19L50.7 19L50.7 18.0L50.7 18.0Q50.6 18.2 50.4 18.4Q50.2 18.6 50.0 18.8Q49.7 19.0 49.4 19.1Q49.0 19.2 48.6 19.2ZM48.9 18.0L48.9 18.0Q49.7 18.0 50.2 17.6Q50.7 17.1 50.7 16.4L50.7 16.4L50.7 15.5Q50.7 15.6 50.6 15.6Q50.5 15.6 50.4 15.7Q50.2 15.7 50.1 15.7Q50.0 15.8 49.8 15.8Q49.6 15.8 49.5 15.8Q49.4 15.9 49.2 15.9L49.2 15.9L49.0 15.9Q48.7 15.9 48.4 16.0Q48.2 16.1 48.0 16.2Q47.8 16.3 47.7 16.5Q47.5 16.7 47.5 17.0L47.5 17.0Q47.5 17.5 47.9 17.8Q48.3 18.0 48.9 18.0ZM56.9 19.1L56.9 19.1Q55.9 19.1 55.2 18.7Q54.4 18.2 54.0 17.4Q53.6 16.6 53.6 15.5L53.6 15.5Q53.6 14.4 54.0 13.6Q54.4 12.7 55.2 12.3Q55.9 11.8 56.9 11.8L56.9 11.8Q58.1 11.8 58.9 12.5Q59.7 13.1 59.8 14.2L59.8 14.2L58.5 14.2Q58.4 13.7 58.0 13.3Q57.6 13.0 56.9 13.0L56.9 13.0Q56.1 13.0 55.5 13.6Q55.0 14.3 55.0 15.5L55.0 15.5Q55.0 16.6 55.5 17.3Q56.0 18.0 56.9 18.0L56.9 18.0Q57.5 18.0 57.9 17.7Q58.4 17.3 58.5 16.8L58.5 16.8L59.8 16.8Q59.7 17.8 58.9 18.5Q58.1 19.1 56.9 19.1ZM62.7 19L61.3 19L61.3 9.5L62.7 9.5L62.7 14.9L62.8 14.9L65.6 11.9L67.3 11.9L64.4 15.0L67.5 19L65.8 19L63.4 15.8L62.7 16.5L62.7 19Z M74.6 10.8L71.6 10.8L71.6 9.5L79.0 9.5L79.0 10.8L76.0 10.8L76.0 19L74.6 19L74.6 10.8ZM81.8 14.8L81.8 14.8L81.8 19L80.5 19L80.5 9.5L81.8 9.5L81.8 13.1L81.9 13.1Q82.4 11.8 84.0 11.8L84.0 11.8Q85.1 11.8 85.8 12.5Q86.4 13.2 86.4 14.5L86.4 14.5L86.4 19L85.0 19L85.0 14.7Q85.0 13.9 84.6 13.4Q84.2 13.0 83.5 13.0L83.5 13.0Q82.8 13.0 82.3 13.5Q81.8 14.0 81.8 14.8ZM89.7 19L88.3 19L88.3 11.9L89.6 11.9L89.6 13.0L89.7 13.0Q89.9 12.5 90.4 12.1Q90.9 11.8 91.5 11.8L91.5 11.8Q91.8 11.8 92.1 11.8L92.1 11.8L92.1 13.2Q91.8 13.1 91.4 13.1L91.4 13.1Q90.6 13.1 90.1 13.5Q89.7 14.0 89.7 14.7L89.7 14.7L89.7 19ZM96.1 19.1L96.1 19.1Q95.0 19.1 94.3 18.7Q93.5 18.2 93.1 17.4Q92.7 16.6 92.7 15.5L92.7 15.5Q92.7 14.7 92.9 14.0Q93.2 13.3 93.6 12.8Q94.0 12.4 94.6 12.1Q95.2 11.8 96.0 11.8L96.0 11.8Q96.5 11.8 96.9 11.9Q97.4 12.1 97.8 12.3Q98.2 12.6 98.5 13.0Q98.8 13.4 98.9 14.0Q99.1 14.6 99.1 15.4L99.1 15.4L99.1 15.9L94.1 15.9Q94.1 16.9 94.6 17.4Q95.2 18.0 96.1 18.0L96.1 18.0Q96.7 18.0 97.1 17.7Q97.5 17.5 97.7 17.0L97.7 17.0L99.0 17.2Q98.8 18.1 98.0 18.6Q97.2 19.1 96.1 19.1ZM94.1 14.8L94.1 14.8L97.8 14.8Q97.8 14.0 97.3 13.5Q96.8 13.0 96.0 13.0L96.0 13.0Q95.2 13.0 94.6 13.5Q94.1 14.1 94.1 14.8ZM102.7 19.2L102.7 19.2Q102.0 19.2 101.5 18.9Q101.0 18.7 100.6 18.2Q100.3 17.7 100.3 17.0L100.3 17.0Q100.3 16.7 100.4 16.4Q100.5 16.1 100.6 15.9Q100.8 15.7 101.0 15.5Q101.2 15.4 101.4 15.3Q101.6 15.2 101.9 15.1Q102.2 15.0 102.5 15.0Q102.7 14.9 103.0 14.9L103.0 14.9Q103.2 14.9 103.4 14.8L103.4 14.8Q103.8 14.8 103.9 14.8Q104.0 14.8 104.2 14.7Q104.4 14.7 104.5 14.7Q104.6 14.6 104.7 14.6Q104.8 14.5 104.8 14.4Q104.8 14.3 104.8 14.2L104.8 14.2L104.8 14.2Q104.8 13.6 104.5 13.3Q104.1 12.9 103.5 12.9L103.5 12.9Q102.8 12.9 102.4 13.2Q102.0 13.5 101.8 13.9L101.8 13.9L100.5 13.6Q100.7 13.2 101.0 12.8Q101.3 12.4 101.7 12.2Q102.1 12.0 102.5 11.9Q103.0 11.8 103.5 11.8L103.5 11.8Q103.8 11.8 104.2 11.9Q104.5 11.9 104.9 12.1Q105.3 12.3 105.6 12.5Q105.8 12.8 106.0 13.2Q106.2 13.7 106.2 14.3L106.2 14.3L106.2 19L104.9 19L104.9 18.0L104.8 18.0Q104.7 18.2 104.5 18.4Q104.4 18.6 104.1 18.8Q103.9 19.0 103.5 19.1Q103.1 19.2 102.7 19.2ZM103.0 18.0L103.0 18.0Q103.8 18.0 104.3 17.6Q104.8 17.1 104.8 16.4L104.8 16.4L104.8 15.5Q104.8 15.6 104.7 15.6Q104.6 15.6 104.5 15.7Q104.3 15.7 104.2 15.7Q104.1 15.8 103.9 15.8Q103.7 15.8 103.6 15.8Q103.6 15.9 103.3 15.9L103.3 15.9L103.1 15.9Q102.8 15.9 102.6 16.0Q102.3 16.1 102.1 16.2Q101.9 16.3 101.8 16.5Q101.7 16.7 101.7 17.0L101.7 17.0Q101.7 17.5 102.0 17.8Q102.4 18.0 103.0 18.0ZM110.7 19.1L110.7 19.1Q110.1 19.1 109.5 18.9Q109.0 18.6 108.6 18.2Q108.2 17.7 108.0 17.0Q107.7 16.3 107.7 15.5Q107.7 14.6 108.0 13.9Q108.2 13.2 108.6 12.8Q109.0 12.3 109.5 12.1Q110.1 11.8 110.7 11.8L110.7 11.8Q111.1 11.8 111.4 11.9Q111.7 12.0 111.9 12.1Q112.1 12.2 112.3 12.4Q112.5 12.6 112.6 12.8Q112.6 12.9 112.8 13.1L112.8 13.1L112.8 13.1L112.8 9.5L114.2 9.5L114.2 19L112.9 19L112.9 17.9L112.8 17.9Q112.7 18.1 112.6 18.2Q112.5 18.3 112.3 18.5Q112.1 18.7 111.9 18.8Q111.7 19.0 111.4 19.0Q111.1 19.1 110.7 19.1ZM111.0 18.0L111.0 18.0Q111.9 18.0 112.4 17.3Q112.9 16.6 112.9 15.5L112.9 15.5Q112.9 14.3 112.4 13.7Q111.9 13.0 111.0 13.0L111.0 13.0Q110.4 13.0 110.0 13.3Q109.5 13.6 109.3 14.2Q109.1 14.7 109.1 15.5L109.1 15.5Q109.1 16.2 109.3 16.7Q109.5 17.3 110.0 17.6Q110.4 18.0 111.0 18.0Z "/></g></svg>
