<svg role="img" aria-label="Slack Thread" width="118" height="28" viewBox="0 0 118 28" xmlns="http://www.w3.org/2000/svg"><title>Slack Thread</title><defs>
    <linearGradient id="shd" x1="0" y1="0" x2="0" y2="1">
      <stop offset="0" stop-color="#fff" stop-opacity=".5"/>
      <stop offset=".1" stop-color="#fff" stop-opacity=".1"/>
      <stop offset=".9" stop-color="#000" stop-opacity=".2"/>
      <stop offset="1" stop-color="#000" stop-opacity=".35"/>
    </linearGradient>
  </defs><style><![CDATA[
    .bg { fill: #4A154B; }
    .shade { fill: url(#shd); }
    @media (prefers-color-scheme: dark) {
      .bg { fill: #611f69; }
    }
  ]]></style><mask id="satori_om-id"><rect x="0" y="0" width="118" height="28" fill="#fff"/></mask><path x="0" y="0" width="118" height="28" class="bg" d="M6,0 h106 a6,6 0 0 1 6,6 v16 a6,6 0 0 1 -6,6 h-106 a6,6 0 0 1 -6,-6 v-16 a6,6 0 0 1 6,-6"/><rect width="118" height="28" rx="6" class="shade"/><clipPath id="satori_cp-id-0"><rect x="13" y="5" width="18" height="18"/></clipPath><mask id="satori_om-id-0"><rect x="13" y="5" width="18" height="18" fill="#fff"/></mask><g transform="translate(10, 5)"><svg width="18" height="18" viewBox="0 0 128 128" fill="none"><path d="M27.255 80.719c0 7.33-5.978 13.317-13.309 13.317C6.616 94.036.63 88.049.63 80.719s5.987-13.317 13.317-13.317h13.309zm6.709 0c0-7.33 5.987-13.317 13.317-13.317s13.317 5.986 13.317 13.317v33.335c0 7.33-5.986 13.317-13.317 13.317-7.33 0-13.317-5.987-13.317-13.317z" fill="white"/><path d="M47.281 27.255c-7.33 0-13.317-5.978-13.317-13.309C33.964 6.616 39.951.63 47.281.63s13.317 5.987 13.317 13.317v13.309zm0 6.709c7.33 0 13.317 5.987 13.317 13.317s-5.986 13.317-13.317 13.317H13.946C6.616 60.598.63 54.612.63 47.281c0-7.33 5.987-13.317 13.317-13.317z" fill="white"/><path d="M100.745 47.281c0-7.33 5.978-13.317 13.309-13.317 7.33 0 13.317 5.987 13.317 13.317s-5.987 13.317-13.317 13.317h-13.309zm-6.709 0c0 7.33-5.987 13.317-13.317 13.317s-13.317-5.986-13.317-13.317V13.946C67.402 6.616 73.388.63 80.719.63c7.33 0 13.317 5.987 13.317 13.317z" fill="white"/><path d="M80.719 100.745c7.33 0 13.317 5.978 13.317 13.309 0 7.33-5.987 13.317-13.317 13.317s-13.317-5.987-13.317-13.317v-13.309zm0-6.709c-7.33 0-13.317-5.987-13.317-13.317s5.986-13.317 13.317-13.317h33.335c7.33 0 13.317 5.986 13.317 13.317 0 7.33-5.987 13.317-13.317 13.317z" fill="white"/></svg></g><mask id="satori_om-id-0-0"><rect x="13" y="5" width="0" height="18" fill="#fff"/></mask><mask id="satori_om-id-0-1"><rect x="13" y="5" width="0" height="18" fill="#fff"/></mask><mask id="satori_om-id-0-2"><rect x="13" y="5" width="0" height="18" fill="#fff"/></mask><mask id="satori_om-id-0-3"><rect x="13" y="5" width="0" height="18" fill="#fff"/></mask><mask id="satori_om-id-1"><rect x="37" y="8" width="69" height="13" fill="#fff"/></mask><g  ><path fill="white" d="M43.4 13.1L42.2 13.1Q42.2 12.6 41.7 12.2Q41.3 11.9 40.6 11.9L40.6 11.9Q39.9 11.9 39.4 12.3Q39.0 12.6 39.0 13.1L39.0 13.1Q39.0 13.3 39.1 13.5Q39.2 13.7 39.3 13.8Q39.4 14.0 39.7 14.1Q39.9 14.2 40.0 14.2Q40.2 14.3 40.4 14.3L40.4 14.3L41.2 14.5Q43.5 15.1 43.5 16.8L43.5 16.8Q43.5 17.8 42.7 18.5Q41.9 19.1 40.6 19.1L40.6 19.1Q39.2 19.1 38.4 18.5Q37.6 17.9 37.6 16.8L37.6 16.8L38.8 16.8Q38.8 17.4 39.3 17.7Q39.8 18.1 40.5 18.1L40.5 18.1Q41.3 18.1 41.8 17.7Q42.3 17.4 42.3 16.8L42.3 16.8Q42.3 16.6 42.2 16.4Q42.2 16.2 42.0 16.1Q41.9 16.0 41.7 15.9Q41.5 15.8 41.3 15.7Q41.1 15.6 40.8 15.6L40.8 15.6L39.9 15.3Q37.8 14.7 37.8 13.2L37.8 13.2Q37.8 12.5 38.2 12.0Q38.5 11.5 39.2 11.2Q39.8 10.9 40.6 10.9L40.6 10.9Q41.8 10.9 42.6 11.5Q43.4 12.1 43.4 13.1L43.4 13.1ZM44.9 11L46.0 11L46.0 19L44.9 19L44.9 11ZM49.3 19.1L49.3 19.1Q48.8 19.1 48.3 18.9Q47.9 18.7 47.6 18.3Q47.3 17.9 47.3 17.3L47.3 17.3Q47.3 17.0 47.4 16.8Q47.5 16.5 47.6 16.4Q47.7 16.2 47.9 16.1Q48.1 15.9 48.2 15.8Q48.4 15.8 48.7 15.7Q48.9 15.6 49.1 15.6Q49.4 15.5 49.6 15.5L49.6 15.5Q49.7 15.5 50.0 15.5L50.0 15.5Q50.2 15.4 50.3 15.4Q50.5 15.4 50.6 15.4Q50.8 15.4 50.9 15.3Q50.9 15.3 51.0 15.2Q51.1 15.2 51.1 15.1Q51.1 15.1 51.1 15.0L51.1 15.0L51.1 14.9Q51.1 14.4 50.8 14.1Q50.6 13.9 50.0 13.9L50.0 13.9Q49.4 13.9 49.1 14.1Q48.7 14.3 48.6 14.7L48.6 14.7L47.5 14.5Q47.6 14.1 47.9 13.8Q48.2 13.5 48.5 13.3Q48.8 13.1 49.2 13.0Q49.6 12.9 50.0 12.9L50.0 12.9Q50.3 12.9 50.6 13.0Q50.9 13.0 51.2 13.2Q51.5 13.3 51.8 13.5Q52 13.7 52.2 14.1Q52.3 14.5 52.3 15.0L52.3 15.0L52.3 19L51.2 19L51.2 18.2L51.1 18.2Q51.0 18.4 50.9 18.5Q50.7 18.7 50.5 18.8Q50.3 19.0 50.0 19.0Q49.7 19.1 49.3 19.1ZM49.6 18.2L49.6 18.2Q50.3 18.2 50.7 17.8Q51.1 17.4 51.1 16.8L51.1 16.8L51.1 16.1Q51.1 16.1 51.0 16.1Q51.0 16.2 50.8 16.2Q50.7 16.2 50.6 16.2Q50.5 16.3 50.4 16.3Q50.2 16.3 50.1 16.3Q50.1 16.3 49.9 16.4L49.9 16.4L49.7 16.4Q49.4 16.4 49.2 16.5Q49.0 16.5 48.8 16.6Q48.7 16.8 48.6 16.9Q48.5 17.1 48.5 17.3L48.5 17.3Q48.5 17.7 48.8 18.0Q49.1 18.2 49.6 18.2ZM56.4 19.1L56.4 19.1Q55.5 19.1 54.9 18.7Q54.3 18.3 53.9 17.6Q53.6 16.9 53.6 16.0L53.6 16.0Q53.6 15.1 53.9 14.4Q54.3 13.7 54.9 13.3Q55.5 12.9 56.4 12.9L56.4 12.9Q57.4 12.9 58.1 13.5Q58.8 14.0 58.9 14.9L58.9 14.9L57.7 14.9Q57.6 14.5 57.3 14.2Q56.9 13.9 56.4 13.9L56.4 13.9Q55.7 13.9 55.2 14.5Q54.8 15.0 54.8 16L54.8 16Q54.8 17.0 55.2 17.6Q55.7 18.1 56.4 18.1L56.4 18.1Q56.9 18.1 57.3 17.9Q57.6 17.6 57.7 17.1L57.7 17.1L58.9 17.1Q58.8 18.0 58.1 18.6Q57.4 19.1 56.4 19.1ZM61.3 19L60.1 19L60.1 11L61.3 11L61.3 15.5L61.4 15.5L63.8 13L65.2 13L62.7 15.6L65.3 19L63.9 19L61.9 16.3L61.3 16.9L61.3 19Z M71.3 12.0L68.8 12.0L68.8 11L75.0 11L75.0 12.0L72.5 12.0L72.5 19L71.3 19L71.3 12.0ZM77.5 15.4L77.5 15.4L77.5 19L76.3 19L76.3 11L77.5 11L77.5 14.0L77.5 14.0Q78.0 12.9 79.3 12.9L79.3 12.9Q80.3 12.9 80.8 13.5Q81.4 14.1 81.4 15.2L81.4 15.2L81.4 19L80.2 19L80.2 15.3Q80.2 14.7 79.9 14.3Q79.5 13.9 78.9 13.9L78.9 13.9Q78.3 13.9 77.9 14.3Q77.5 14.7 77.5 15.4ZM84.1 19L82.9 19L82.9 13L84.1 13L84.1 14.0L84.1 14.0Q84.3 13.5 84.7 13.2Q85.1 12.9 85.6 12.9L85.6 12.9Q85.9 12.9 86.1 12.9L86.1 12.9L86.1 14.1Q85.9 14.0 85.5 14.0L85.5 14.0Q84.9 14.0 84.5 14.4Q84.1 14.7 84.1 15.3L84.1 15.3L84.1 19ZM89.5 19.1L89.5 19.1Q88.6 19.1 88.0 18.7Q87.3 18.4 87.0 17.7Q86.7 17.0 86.7 16.0L86.7 16.0Q86.7 15.4 86.9 14.8Q87.1 14.2 87.4 13.8Q87.8 13.4 88.3 13.2Q88.8 12.9 89.4 12.9L89.4 12.9Q89.9 12.9 90.2 13.0Q90.6 13.1 91.0 13.4Q91.3 13.6 91.6 13.9Q91.8 14.3 91.9 14.8Q92.1 15.3 92.1 15.9L92.1 15.9L92.1 16.4L87.8 16.4Q87.9 17.2 88.3 17.7Q88.8 18.2 89.5 18.2L89.5 18.2Q90.0 18.2 90.4 17.9Q90.8 17.7 90.9 17.3L90.9 17.3L92.0 17.5Q91.8 18.2 91.2 18.7Q90.5 19.1 89.5 19.1ZM87.8 15.5L87.8 15.5L90.9 15.5Q90.9 14.8 90.5 14.3Q90.1 13.9 89.4 13.9L89.4 13.9Q88.8 13.9 88.3 14.3Q87.9 14.8 87.8 15.5ZM95.1 19.1L95.1 19.1Q94.6 19.1 94.1 18.9Q93.7 18.7 93.4 18.3Q93.1 17.9 93.1 17.3L93.1 17.3Q93.1 17.0 93.2 16.8Q93.3 16.5 93.4 16.4Q93.5 16.2 93.7 16.1Q93.8 15.9 94.0 15.8Q94.2 15.8 94.5 15.7Q94.7 15.6 94.9 15.6Q95.1 15.5 95.4 15.5L95.4 15.5Q95.5 15.5 95.8 15.5L95.8 15.5Q96.0 15.4 96.1 15.4Q96.3 15.4 96.4 15.4Q96.6 15.4 96.7 15.3Q96.7 15.3 96.8 15.2Q96.9 15.2 96.9 15.1Q96.9 15.1 96.9 15.0L96.9 15.0L96.9 14.9Q96.9 14.4 96.6 14.1Q96.3 13.9 95.8 13.9L95.8 13.9Q95.2 13.9 94.9 14.1Q94.5 14.3 94.4 14.7L94.4 14.7L93.3 14.5Q93.4 14.1 93.7 13.8Q93.9 13.5 94.3 13.3Q94.6 13.1 95.0 13.0Q95.4 12.9 95.8 12.9L95.8 12.9Q96.1 12.9 96.4 13.0Q96.7 13.0 97.0 13.2Q97.3 13.3 97.6 13.5Q97.8 13.7 97.9 14.1Q98.1 14.5 98.1 15.0L98.1 15.0L98.1 19L97.0 19L97.0 18.2L96.9 18.2Q96.8 18.4 96.7 18.5Q96.5 18.7 96.3 18.8Q96.1 19.0 95.8 19.0Q95.5 19.1 95.1 19.1ZM95.4 18.2L95.4 18.2Q96.1 18.2 96.5 17.8Q96.9 17.4 96.9 16.8L96.9 16.8L96.9 16.1Q96.9 16.1 96.8 16.1Q96.8 16.2 96.6 16.2Q96.5 16.2 96.4 16.2Q96.3 16.3 96.2 16.3Q96.0 16.3 95.9 16.3Q95.9 16.3 95.7 16.4L95.7 16.4L95.5 16.4Q95.2 16.4 95.0 16.5Q94.8 16.5 94.6 16.6Q94.4 16.8 94.4 16.9Q94.3 17.1 94.3 17.3L94.3 17.3Q94.3 17.7 94.6 18.0Q94.9 18.2 95.4 18.2ZM101.9 19.1L101.9 19.1Q101.4 19.1 100.9 18.9Q100.4 18.7 100.1 18.3Q99.8 17.9 99.6 17.3Q99.4 16.7 99.4 16.0Q99.4 15.3 99.6 14.7Q99.8 14.1 100.1 13.7Q100.4 13.3 100.9 13.1Q101.4 12.9 101.9 12.9L101.9 12.9Q102.2 12.9 102.5 13Q102.8 13.1 102.9 13.2Q103.1 13.3 103.3 13.4Q103.4 13.6 103.5 13.7Q103.5 13.8 103.6 14.0L103.6 14.0L103.7 14.0L103.7 11L104.9 11L104.9 19L103.7 19L103.7 18.1L103.6 18.1Q103.6 18.2 103.5 18.3Q103.4 18.4 103.3 18.6Q103.1 18.8 102.9 18.9Q102.8 19.0 102.5 19.0Q102.2 19.1 101.9 19.1ZM102.2 18.1L102.2 18.1Q102.9 18.1 103.3 17.5Q103.7 17.0 103.7 16L103.7 16Q103.7 15.0 103.3 14.5Q102.9 13.9 102.2 13.9L102.2 13.9Q101.6 13.9 101.3 14.2Q100.9 14.5 100.7 14.9Q100.6 15.4 100.6 16L100.6 16Q100.6 16.6 100.8 17.1Q100.9 17.6 101.3 17.8Q101.7 18.1 102.2 18.1Z "/></g></svg>