<svg xmlns="http://www.w3.org/2000/svg" width="109" height="20" role="img" aria-label="View in Indent"><title>View in Indent</title><style><![CDATA[.bg{fill:#fff}.logo{fill:#333}.txt{fill:#333}.shadow{fill:#ccc;fill-opacity:.3}@media(prefers-color-scheme:dark){.bg{fill:#21262d}.logo{fill:#f0f6fc}.txt{fill:#f0f6fc}.shadow{fill:#000;fill-opacity:.3}}]]></style><linearGradient id="s" x2="0" y2="100%"><stop offset="0" stop-color="#bbb" stop-opacity=".1"/><stop offset="1" stop-opacity=".1"/></linearGradient><clipPath id="r"><rect width="109" height="20" rx="3" fill="#fff"/></clipPath><g clip-path="url(#r)"><rect width="109" height="20" class="bg"/><rect width="109" height="20" fill="url(#s)"/></g><g text-anchor="middle" font-family="Verdana,Geneva,DejaVu Sans,sans-serif" text-rendering="geometricPrecision" font-size="110"><g transform="translate(5,3)"><svg width="14" height="14" viewBox="0 0 16 16" fill="none"><path fill-rule="evenodd" clip-rule="evenodd" d="M4.5 8a3.5 3.5 0 100 7H8v-3.5a3.5 3.5 0 107 0V8h-3.5a3.5 3.5 0 100-7H8v3.5a3.5 3.5 0 10-7 0V8h3.5zm0 0A3.5 3.5 0 008 4.5 3.5 3.5 0 0011.5 8 3.5 3.5 0 008 11.5 3.5 3.5 0 004.5 8z" class="logo"/></svg></g><text aria-hidden="true" x="635" y="150" class="shadow" transform="scale(.1)" textLength="810">View in Indent</text><text x="635" y="140" transform="scale(.1)" class="txt" textLength="810">View in Indent</text></g></svg>
