<svg width="131" height="28" viewBox="0 0 131 28" xmlns="http://www.w3.org/2000/svg" role="img" aria-label="Open in Indent">
  <title>Open in Indent</title>
  <defs>
    <clipPath id="border-clip"><path d="M4,0 h123 a4,4 0 0 1 4,4 v20 a4,4 0 0 1 -4,4 h-123 a4,4 0 0 1 -4,-4 v-20 a4,4 0 0 1 4,-4"/></clipPath>
  </defs>
  <style><![CDATA[
    .bg { fill: #F0F0F0; }
    .border { stroke: rgba(0,0,0,0.1); }
    .fg { fill: #000000; }
    @media (prefers-color-scheme: dark) {
      .bg { fill: #212121; }
      .border { stroke: rgba(255,255,255,0.08); }
      .fg { fill: #FFFFFF; }
    }
  ]]></style>
  <path d="M4,0 h123 a4,4 0 0 1 4,4 v20 a4,4 0 0 1 -4,4 h-123 a4,4 0 0 1 -4,-4 v-20 a4,4 0 0 1 4,-4" class="bg"/>
  <path d="M4,1 h123 a3,3 0 0 1 3,3 v20 a3,3 0 0 1 -3,3 h-123 a3,3 0 0 1 -3,-3 v-20 a3,3 0 0 1 3,-3" fill="none" class="border" stroke-width="2" clip-path="url(#border-clip)"/>
  <svg x="9" y="7" width="14" height="14" viewBox="0 0 16 16" fill="none"><path fill-rule="evenodd" clip-rule="evenodd" d="M4.5 8a3.5 3.5 0 100 7H8v-3.5a3.5 3.5 0 107 0V8h-3.5a3.5 3.5 0 100-7H8v3.5a3.5 3.5 0 10-7 0V8h3.5zm0 0A3.5 3.5 0 008 4.5 3.5 3.5 0 0011.5 8 3.5 3.5 0 008 11.5 3.5 3.5 0 004.5 8z" class="fg"/></svg>
  <path d="M39.9 12.2Q40.3 13.2 40.3 14.3Q40.3 15.4 39.9 16.3Q39.6 17.2 39.0 17.8Q38.5 18.5 37.7 18.8Q36.9 19.1 36.0 19.1L36.0 19.1Q35.1 19.1 34.3 18.8Q33.5 18.5 32.9 17.8Q32.4 17.2 32.1 16.3Q31.7 15.4 31.7 14.3Q31.7 13.2 32.1 12.2Q32.4 11.3 32.9 10.7Q33.5 10.1 34.3 9.8Q35.1 9.4 36.0 9.4L36.0 9.4Q36.9 9.4 37.7 9.8Q38.5 10.1 39.0 10.7Q39.6 11.3 39.9 12.2ZM38.6 15.8Q38.8 15.1 38.8 14.3Q38.8 13.4 38.6 12.7Q38.4 12.1 38.0 11.6Q37.6 11.2 37.1 11.0Q36.6 10.7 36.0 10.7Q35.4 10.7 34.9 11.0Q34.3 11.2 34.0 11.6Q33.6 12.1 33.4 12.7Q33.2 13.4 33.2 14.3Q33.2 15.1 33.4 15.8Q33.6 16.5 34.0 16.9Q34.3 17.4 34.9 17.6Q35.4 17.8 36.0 17.8Q36.6 17.8 37.1 17.6Q37.6 17.4 38.0 16.9Q38.4 16.5 38.6 15.8ZM43.3 21.7L41.9 21.7L41.9 11.9L43.3 11.9L43.3 13.1L43.4 13.1Q43.5 12.9 43.6 12.8Q43.6 12.6 43.8 12.4Q44 12.2 44.2 12.1Q44.4 12.0 44.7 11.9Q45.0 11.8 45.4 11.8L45.4 11.8Q46.1 11.8 46.6 12.1Q47.1 12.3 47.5 12.8Q47.9 13.2 48.2 13.9Q48.4 14.6 48.4 15.5L48.4 15.5Q48.4 17.2 47.6 18.1Q46.7 19.1 45.4 19.1L45.4 19.1Q45.1 19.1 44.7 19.0Q44.4 19.0 44.2 18.8Q44.0 18.7 43.8 18.5Q43.7 18.3 43.6 18.2Q43.5 18.1 43.4 17.9L43.4 17.9L43.3 17.9L43.3 21.7ZM43.3 15.5L43.3 15.5Q43.3 16.6 43.8 17.3Q44.2 18.0 45.1 18.0L45.1 18.0Q45.7 18.0 46.1 17.6Q46.6 17.3 46.8 16.7Q47.0 16.2 47.0 15.5L47.0 15.5Q47.0 14.7 46.8 14.2Q46.6 13.6 46.2 13.3Q45.7 13.0 45.1 13.0L45.1 13.0Q44.2 13.0 43.7 13.7Q43.3 14.3 43.3 15.5ZM53.0 19.1L53.0 19.1Q52.0 19.1 51.2 18.7Q50.4 18.2 50.0 17.4Q49.6 16.6 49.6 15.5L49.6 15.5Q49.6 14.7 49.9 14.0Q50.1 13.3 50.5 12.8Q50.9 12.4 51.6 12.1Q52.2 11.8 52.9 11.8L52.9 11.8Q53.4 11.8 53.8 11.9Q54.3 12.1 54.7 12.3Q55.1 12.6 55.4 13.0Q55.7 13.4 55.9 14.0Q56.0 14.6 56.0 15.4L56.0 15.4L56.0 15.9L51.0 15.9Q51.0 16.9 51.6 17.4Q52.1 18.0 53.0 18.0L53.0 18.0Q53.6 18.0 54.0 17.7Q54.5 17.5 54.6 17.0L54.6 17.0L55.9 17.2Q55.7 18.1 54.9 18.6Q54.1 19.1 53.0 19.1ZM51.0 14.8L51.0 14.8L54.7 14.8Q54.7 14.0 54.2 13.5Q53.7 13.0 52.9 13.0L52.9 13.0Q52.1 13.0 51.6 13.5Q51.0 14.1 51.0 14.8ZM59.0 14.8L59.0 14.8L59.0 19L57.6 19L57.6 11.9L58.9 11.9L58.9 13.1L59.0 13.1Q59.2 12.5 59.8 12.1Q60.3 11.8 61.1 11.8L61.1 11.8Q62.2 11.8 62.8 12.5Q63.5 13.2 63.5 14.5L63.5 14.5L63.5 19L62.1 19L62.1 14.7Q62.1 13.9 61.7 13.4Q61.3 13.0 60.6 13.0L60.6 13.0Q59.9 13.0 59.4 13.5Q59.0 14.0 59.0 14.8Z M70.2 19L68.8 19L68.8 11.9L70.2 11.9L70.2 19ZM69.5 10.8L69.5 10.8Q69.1 10.8 68.9 10.6Q68.6 10.3 68.6 10.0L68.6 10.0Q68.6 9.7 68.9 9.4Q69.1 9.2 69.5 9.2L69.5 9.2Q69.8 9.2 70.1 9.4Q70.4 9.7 70.4 10.0Q70.4 10.3 70.1 10.6Q69.8 10.8 69.5 10.8ZM73.4 14.8L73.4 14.8L73.4 19L72.0 19L72.0 11.9L73.3 11.9L73.3 13.1L73.4 13.1Q73.7 12.5 74.2 12.1Q74.7 11.8 75.5 11.8L75.5 11.8Q76.6 11.8 77.3 12.5Q77.9 13.2 77.9 14.5L77.9 14.5L77.9 19L76.6 19L76.6 14.7Q76.6 13.9 76.2 13.4Q75.8 13.0 75.1 13.0L75.1 13.0Q74.3 13.0 73.9 13.5Q73.4 14.0 73.4 14.8Z M83.3 9.5L84.8 9.5L84.8 19L83.3 19L83.3 9.5ZM88.1 14.8L88.1 14.8L88.1 19L86.7 19L86.7 11.9L88.1 11.9L88.1 13.1L88.1 13.1Q88.4 12.5 88.9 12.1Q89.5 11.8 90.2 11.8L90.2 11.8Q91.3 11.8 92.0 12.5Q92.6 13.2 92.6 14.5L92.6 14.5L92.6 19L91.3 19L91.3 14.7Q91.3 13.9 90.9 13.4Q90.5 13.0 89.8 13.0L89.8 13.0Q89.0 13.0 88.6 13.5Q88.1 14.0 88.1 14.8ZM97.1 19.1L97.1 19.1Q96.5 19.1 96.0 18.9Q95.4 18.6 95.0 18.2Q94.6 17.7 94.4 17.0Q94.2 16.3 94.2 15.5Q94.2 14.6 94.4 13.9Q94.6 13.2 95.0 12.8Q95.4 12.3 96.0 12.1Q96.5 11.8 97.2 11.8L97.2 11.8Q97.5 11.8 97.9 11.9Q98.2 12.0 98.4 12.1Q98.6 12.2 98.8 12.4Q98.9 12.6 99.0 12.8Q99.1 12.9 99.2 13.1L99.2 13.1L99.3 13.1L99.3 9.5L100.7 9.5L100.7 19L99.3 19L99.3 17.9L99.2 17.9Q99.1 18.1 99.0 18.2Q98.9 18.3 98.7 18.5Q98.6 18.7 98.4 18.8Q98.2 19.0 97.8 19.0Q97.5 19.1 97.1 19.1ZM97.5 18.0L97.5 18.0Q98.3 18.0 98.8 17.3Q99.3 16.6 99.3 15.5L99.3 15.5Q99.3 14.3 98.8 13.7Q98.3 13.0 97.5 13.0L97.5 13.0Q96.8 13.0 96.4 13.3Q96.0 13.6 95.8 14.2Q95.6 14.7 95.6 15.5L95.6 15.5Q95.6 16.2 95.8 16.7Q96.0 17.3 96.4 17.6Q96.9 18.0 97.5 18.0ZM105.7 19.1L105.7 19.1Q104.7 19.1 103.9 18.7Q103.1 18.2 102.7 17.4Q102.3 16.6 102.3 15.5L102.3 15.5Q102.3 14.7 102.5 14.0Q102.8 13.3 103.2 12.8Q103.6 12.4 104.2 12.1Q104.9 11.8 105.6 11.8L105.6 11.8Q106.1 11.8 106.5 11.9Q107.0 12.1 107.4 12.3Q107.8 12.6 108.1 13.0Q108.4 13.4 108.6 14.0Q108.7 14.6 108.7 15.4L108.7 15.4L108.7 15.9L103.7 15.9Q103.7 16.9 104.3 17.4Q104.8 18.0 105.7 18.0L105.7 18.0Q106.3 18.0 106.7 17.7Q107.1 17.5 107.3 17.0L107.3 17.0L108.6 17.2Q108.4 18.1 107.6 18.6Q106.8 19.1 105.7 19.1ZM103.7 14.8L103.7 14.8L107.4 14.8Q107.4 14.0 106.9 13.5Q106.4 13.0 105.6 13.0L105.6 13.0Q104.8 13.0 104.3 13.5Q103.7 14.1 103.7 14.8ZM111.6 14.8L111.6 14.8L111.6 19L110.3 19L110.3 11.9L111.6 11.9L111.6 13.1L111.7 13.1Q111.9 12.5 112.5 12.1Q113.0 11.8 113.8 11.8L113.8 11.8Q114.9 11.8 115.5 12.5Q116.2 13.2 116.2 14.5L116.2 14.5L116.2 19L114.8 19L114.8 14.7Q114.8 13.9 114.4 13.4Q114.0 13.0 113.3 13.0L113.3 13.0Q112.6 13.0 112.1 13.5Q111.6 14.0 111.6 14.8ZM119.9 11.9L121.3 11.9L121.3 13.0L119.9 13.0L119.9 16.9Q119.9 17.2 120.0 17.4Q120.0 17.6 120.1 17.7Q120.3 17.8 120.4 17.8Q120.6 17.9 120.7 17.9Q120.9 17.9 121.2 17.8L121.2 17.8L121.5 18.9Q121.1 19.1 120.6 19.1L120.6 19.1Q120.2 19.1 119.8 19.0Q119.4 18.9 119.1 18.6Q118.8 18.4 118.7 18.0Q118.5 17.7 118.5 17.2L118.5 17.2L118.5 13.0L117.5 13.0L117.5 11.9L118.5 11.9L118.5 10.2L119.9 10.2L119.9 11.9Z " class="fg"/>
</svg>
