<svg xmlns="http://www.w3.org/2000/svg" width="128" height="28" viewBox="0 0 128 28" role="img" aria-label="View in Indent">
  <title>View in Indent</title>
  <style><![CDATA[
    .bg { fill: #0D0D0D; }
    .border { stroke: #94bbfc; fill: none; }
    .text { fill: #F0F0F0; }
    .logo { fill: #F0F0F0; }
    @media (prefers-color-scheme: dark) {
      .bg { fill: #F0F0F0; }
      .border { stroke: #94bbfc; }
      .text { fill: #0D0D0D; }
      .logo { fill: #0D0D0D; }
    }
  ]]></style>
  <rect x="0.5" y="0.5" width="127" height="27" rx="6" class="bg"/>
  <rect x="0.5" y="0.5" width="127" height="27" rx="6" class="border"/>
  <g transform="translate(8, 5)">
    <svg width="18" height="18" viewBox="0 0 16 16" fill="none">
      <path fill-rule="evenodd" clip-rule="evenodd" d="M4.5 8a3.5 3.5 0 100 7H8v-3.5a3.5 3.5 0 107 0V8h-3.5a3.5 3.5 0 100-7H8v3.5a3.5 3.5 0 10-7 0V8h3.5zm0 0A3.5 3.5 0 008 4.5 3.5 3.5 0 0011.5 8 3.5 3.5 0 008 11.5 3.5 3.5 0 004.5 8z" class="logo"/>
    </svg>
  </g>
  <text x="30" y="14" dominant-baseline="central" font-family="Inter, -apple-system, BlinkMacSystemFont, 'Segoe UI', Helvetica, Arial, sans-serif" font-size="13" font-weight="500" class="text">View in Indent</text>
</svg>
