<svg role="img" aria-label="View in Indent" width="128" height="28" viewBox="0 0 128 28" xmlns="http://www.w3.org/2000/svg"><defs>
    <linearGradient id="shd" x1="0" y1="0" x2="0" y2="1">
      <stop offset="0" stop-color="#fff" stop-opacity=".5"/>
      <stop offset=".1" stop-color="#fff" stop-opacity=".1"/>
      <stop offset=".9" stop-color="#000" stop-opacity=".2"/>
      <stop offset="1" stop-color="#000" stop-opacity=".35"/>
    </linearGradient>
    <linearGradient id="shd-d" x1="0" y1="0" x2="0" y2="1">
      <stop offset="0" stop-color="#fff" stop-opacity=".4"/>
      <stop offset=".1" stop-color="#fff" stop-opacity=".08"/>
      <stop offset=".9" stop-color="#000" stop-opacity=".15"/>
      <stop offset="1" stop-color="#000" stop-opacity=".3"/>
    </linearGradient>
  </defs><style><![CDATA[
    .bg { fill: #1A1A1A; }
    .shade { fill: url(#shd); }
    .fg { fill: white; }
    @media (prefers-color-scheme: dark) {
      .bg { fill: #F0F0F0; }
      .shade { fill: url(#shd-d); }
      .fg { fill: #1A1A1A; }
    }
  ]]></style><mask id="satori_om-id"><rect x="0" y="0" width="128" height="28" fill="#fff"/></mask><path x="0" y="0" width="128" height="28" class="bg" d="M6,0 h116 a6,6 0 0 1 6,6 v16 a6,6 0 0 1 -6,6 h-116 a6,6 0 0 1 -6,-6 v-16 a6,6 0 0 1 6,-6"/><rect width="128" height="28" rx="6" class="shade"/><clipPath id="satori_cp-id-0"><rect x="10" y="5" width="18" height="18"/></clipPath><mask id="satori_om-id-0"><rect x="10" y="5" width="18" height="18" fill="#fff"/></mask><g transform="translate(10, 5)"><svg width="18" height="18" viewBox="0 0 16 16" fill="none"><path fill-rule="evenodd" clip-rule="evenodd" d="M4.5 8a3.5 3.5 0 100 7H8v-3.5a3.5 3.5 0 107 0V8h-3.5a3.5 3.5 0 100-7H8v3.5a3.5 3.5 0 10-7 0V8h3.5zm0 0A3.5 3.5 0 008 4.5 3.5 3.5 0 0011.5 8 3.5 3.5 0 008 11.5 3.5 3.5 0 004.5 8z" class="fg"/></svg></g><mask id="satori_om-id-0-0"><rect x="10" y="5" width="0" height="18" fill="#fff"/></mask><mask id="satori_om-id-1"><rect x="34" y="-2" width="84" height="32" fill="#fff"/></mask><g  ><path class="fg" d="M53.3 1.5L54.9 1.5L57.5 9.2L57.6 9.2L60.2 1.5L61.8 1.5L58.4 11L56.7 11L53.3 1.5ZM64.4 11L63.0 11L63.0 3.9L64.4 3.9L64.4 11ZM63.7 2.8L63.7 2.8Q63.4 2.8 63.1 2.6Q62.9 2.3 62.9 2.0L62.9 2.0Q62.9 1.7 63.1 1.4Q63.4 1.2 63.7 1.2L63.7 1.2Q64.1 1.2 64.3 1.4Q64.6 1.7 64.6 2.0Q64.6 2.3 64.3 2.6Q64.1 2.8 63.7 2.8ZM69.3 11.1L69.3 11.1Q68.3 11.1 67.5 10.7Q66.8 10.2 66.3 9.4Q65.9 8.6 65.9 7.5L65.9 7.5Q65.9 6.7 66.2 6.0Q66.4 5.3 66.8 4.8Q67.3 4.4 67.9 4.1Q68.5 3.8 69.2 3.8L69.2 3.8Q69.7 3.8 70.2 3.9Q70.6 4.1 71.0 4.3Q71.4 4.6 71.7 5.0Q72.0 5.4 72.2 6.0Q72.4 6.6 72.4 7.4L72.4 7.4L72.4 7.9L67.3 7.9Q67.3 8.9 67.9 9.4Q68.4 10.0 69.3 10.0L69.3 10.0Q69.9 10.0 70.4 9.7Q70.8 9.5 71.0 9.0L71.0 9.0L72.3 9.2Q72.0 10.1 71.2 10.6Q70.5 11.1 69.3 11.1ZM67.3 6.8L67.3 6.8L71.0 6.8Q71.0 6.0 70.5 5.5Q70.0 5.0 69.2 5.0L69.2 5.0Q68.4 5.0 67.9 5.5Q67.4 6.1 67.3 6.8ZM76.8 11L75.4 11L73.3 3.9L74.8 3.9L76.1 9.1L76.2 9.1L77.6 3.9L79.0 3.9L80.4 9.1L80.5 9.1L81.9 3.9L83.3 3.9L81.2 11L79.8 11L78.4 5.9L78.3 5.9L76.8 11Z M90.3 11L88.9 11L88.9 3.9L90.3 3.9L90.3 11ZM89.6 2.8L89.6 2.8Q89.3 2.8 89.0 2.6Q88.8 2.3 88.8 2.0L88.8 2.0Q88.8 1.7 89.0 1.4Q89.3 1.2 89.6 1.2L89.6 1.2Q90.0 1.2 90.2 1.4Q90.5 1.7 90.5 2.0Q90.5 2.3 90.2 2.6Q90.0 2.8 89.6 2.8ZM93.5 6.8L93.5 6.8L93.5 11L92.2 11L92.2 3.9L93.5 3.9L93.5 5.1L93.6 5.1Q93.8 4.5 94.4 4.1Q94.9 3.8 95.7 3.8L95.7 3.8Q96.8 3.8 97.4 4.5Q98.1 5.2 98.1 6.5L98.1 6.5L98.1 11L96.7 11L96.7 6.7Q96.7 5.9 96.3 5.4Q95.9 5.0 95.2 5.0L95.2 5.0Q94.5 5.0 94.0 5.5Q93.5 6.0 93.5 6.8Z M57.0 17.5L58.5 17.5L58.5 27L57.0 27L57.0 17.5ZM61.8 22.8L61.8 22.8L61.8 27L60.4 27L60.4 19.9L61.8 19.9L61.8 21.1L61.8 21.1Q62.1 20.5 62.6 20.1Q63.2 19.8 63.9 19.8L63.9 19.8Q65.0 19.8 65.7 20.5Q66.4 21.2 66.4 22.5L66.4 22.5L66.4 27L65.0 27L65.0 22.7Q65.0 21.9 64.6 21.4Q64.2 21.0 63.5 21.0L63.5 21.0Q62.7 21.0 62.3 21.5Q61.8 22.0 61.8 22.8ZM70.9 27.1L70.9 27.1Q70.2 27.1 69.7 26.9Q69.1 26.6 68.7 26.2Q68.3 25.7 68.1 25.0Q67.9 24.3 67.9 23.5Q67.9 22.6 68.1 21.9Q68.3 21.2 68.7 20.8Q69.1 20.3 69.7 20.1Q70.2 19.8 70.9 19.8L70.9 19.8Q71.2 19.8 71.6 19.9Q71.9 20.0 72.1 20.1Q72.3 20.2 72.5 20.4Q72.6 20.6 72.7 20.8Q72.8 20.9 72.9 21.1L72.9 21.1L73.0 21.1L73.0 17.5L74.4 17.5L74.4 27L73.0 27L73.0 25.9L72.9 25.9Q72.8 26.1 72.7 26.2Q72.6 26.3 72.4 26.5Q72.3 26.7 72.1 26.8Q71.9 27.0 71.5 27.0Q71.2 27.1 70.9 27.1ZM71.2 26.0L71.2 26.0Q72.0 26.0 72.5 25.3Q73.0 24.6 73.0 23.5L73.0 23.5Q73.0 22.3 72.5 21.7Q72.0 21.0 71.2 21.0L71.2 21.0Q70.6 21.0 70.1 21.3Q69.7 21.6 69.5 22.2Q69.3 22.7 69.3 23.5L69.3 23.5Q69.3 24.2 69.5 24.7Q69.7 25.3 70.1 25.6Q70.6 26.0 71.2 26.0ZM79.4 27.1L79.4 27.1Q78.4 27.1 77.6 26.7Q76.8 26.2 76.4 25.4Q76.0 24.6 76.0 23.5L76.0 23.5Q76.0 22.7 76.2 22.0Q76.5 21.3 76.9 20.8Q77.3 20.4 77.9 20.1Q78.6 19.8 79.3 19.8L79.3 19.8Q79.8 19.8 80.2 19.9Q80.7 20.1 81.1 20.3Q81.5 20.6 81.8 21.0Q82.1 21.4 82.3 22.0Q82.4 22.6 82.4 23.4L82.4 23.4L82.4 23.9L77.4 23.9Q77.4 24.9 78.0 25.4Q78.5 26.0 79.4 26.0L79.4 26.0Q80.0 26.0 80.4 25.7Q80.9 25.5 81.0 25.0L81.0 25.0L82.3 25.2Q82.1 26.1 81.3 26.6Q80.5 27.1 79.4 27.1ZM77.4 22.8L77.4 22.8L81.1 22.8Q81.1 22.0 80.6 21.5Q80.1 21.0 79.3 21.0L79.3 21.0Q78.5 21.0 78.0 21.5Q77.4 22.1 77.4 22.8ZM85.3 22.8L85.3 22.8L85.3 27L84.0 27L84.0 19.9L85.3 19.9L85.3 21.1L85.4 21.1Q85.6 20.5 86.2 20.1Q86.7 19.8 87.5 19.8L87.5 19.8Q88.6 19.8 89.2 20.5Q89.9 21.2 89.9 22.5L89.9 22.5L89.9 27L88.5 27L88.5 22.7Q88.5 21.9 88.1 21.4Q87.7 21.0 87.0 21.0L87.0 21.0Q86.3 21.0 85.8 21.5Q85.3 22.0 85.3 22.8ZM93.6 19.9L95.0 19.9L95.0 21.0L93.6 21.0L93.6 24.9Q93.6 25.2 93.7 25.4Q93.7 25.6 93.8 25.7Q94.0 25.8 94.1 25.8Q94.3 25.9 94.4 25.9Q94.6 25.9 94.9 25.8L94.9 25.8L95.2 26.9Q94.8 27.1 94.3 27.1L94.3 27.1Q93.9 27.1 93.5 27.0Q93.1 26.9 92.8 26.6Q92.5 26.4 92.4 26.0Q92.2 25.7 92.2 25.2L92.2 25.2L92.2 21.0L91.2 21.0L91.2 19.9L92.2 19.9L92.2 18.2L93.6 18.2L93.6 19.9Z "/></g></svg>