<svg role="img" aria-label="Open in Indent" width="148" height="28" viewBox="0 0 148 28" xmlns="http://www.w3.org/2000/svg"><title>Open in Indent</title><defs>
    <linearGradient id="shd" x1="0" y1="0" x2="0" y2="1">
      <stop offset="0" stop-color="#fff" stop-opacity=".5"/>
      <stop offset=".1" stop-color="#fff" stop-opacity=".1"/>
      <stop offset=".9" stop-color="#000" stop-opacity=".2"/>
      <stop offset="1" stop-color="#000" stop-opacity=".35"/>
    </linearGradient>
    <linearGradient id="shd-d" x1="0" y1="0" x2="0" y2="1">
      <stop offset="0" stop-color="#fff" stop-opacity=".4"/>
      <stop offset=".1" stop-color="#fff" stop-opacity=".08"/>
      <stop offset=".9" stop-color="#000" stop-opacity=".15"/>
      <stop offset="1" stop-color="#000" stop-opacity=".3"/>
    </linearGradient>
  </defs><style><![CDATA[
    .bg { fill: #1A1A1A; }
    .shade { fill: url(#shd); }
    .fg { fill: white; }
    @media (prefers-color-scheme: dark) {
      .bg { fill: #F0F0F0; }
      .shade { fill: url(#shd-d); }
      .fg { fill: #1A1A1A; }
    }
  ]]></style><mask id="satori_om-id"><rect x="0" y="0" width="148" height="28" fill="#fff"/></mask><path x="0" y="0" width="148" height="28" class="bg" d="M6,0 h136 a6,6 0 0 1 6,6 v16 a6,6 0 0 1 -6,6 h-136 a6,6 0 0 1 -6,-6 v-16 a6,6 0 0 1 6,-6"/><rect width="148" height="28" rx="6" class="shade"/><clipPath id="satori_cp-id-0"><rect x="10" y="5" width="18" height="18"/></clipPath><mask id="satori_om-id-0"><rect x="10" y="5" width="18" height="18" fill="#fff"/></mask><g transform="translate(10, 5)"><svg width="18" height="18" viewBox="0 0 16 16" fill="none"><path fill-rule="evenodd" clip-rule="evenodd" d="M4.5 8a3.5 3.5 0 100 7H8v-3.5a3.5 3.5 0 107 0V8h-3.5a3.5 3.5 0 100-7H8v3.5a3.5 3.5 0 10-7 0V8h3.5zm0 0A3.5 3.5 0 008 4.5 3.5 3.5 0 0011.5 8 3.5 3.5 0 008 11.5 3.5 3.5 0 004.5 8z" class="fg"/></svg></g><mask id="satori_om-id-0-0"><rect x="10" y="5" width="0" height="18" fill="#fff"/></mask><mask id="satori_om-id-1"><rect x="34" y="6" width="104" height="16" fill="#fff"/></mask><mask id="satori_om-id-1-0"><rect x="40" y="6" width="34" height="16" fill="#fff"/></mask><g transform="translate(0,-0.9)"><path class="fg" d="M48.9 12.2Q49.3 13.2 49.3 14.3Q49.3 15.4 48.9 16.3Q48.6 17.2 48.0 17.8Q47.5 18.5 46.7 18.8Q45.9 19.1 45.0 19.1L45.0 19.1Q44.1 19.1 43.3 18.8Q42.5 18.5 41.9 17.8Q41.4 17.2 41.1 16.3Q40.7 15.4 40.7 14.3Q40.7 13.2 41.1 12.2Q41.4 11.3 41.9 10.7Q42.5 10.1 43.3 9.8Q44.1 9.4 45.0 9.4L45.0 9.4Q45.9 9.4 46.7 9.8Q47.5 10.1 48.0 10.7Q48.6 11.3 48.9 12.2ZM47.6 15.8Q47.8 15.1 47.8 14.3Q47.8 13.4 47.6 12.7Q47.4 12.1 47.0 11.6Q46.6 11.2 46.1 11.0Q45.6 10.7 45.0 10.7Q44.4 10.7 43.9 11.0Q43.3 11.2 43.0 11.6Q42.6 12.1 42.4 12.7Q42.2 13.4 42.2 14.3Q42.2 15.1 42.4 15.8Q42.6 16.5 43.0 16.9Q43.3 17.4 43.9 17.6Q44.4 17.8 45.0 17.8Q45.6 17.8 46.1 17.6Q46.6 17.4 47.0 16.9Q47.4 16.5 47.6 15.8ZM52.3 21.7L50.9 21.7L50.9 11.9L52.3 11.9L52.3 13.1L52.4 13.1Q52.5 12.9 52.6 12.8Q52.6 12.6 52.8 12.4Q53 12.2 53.2 12.1Q53.4 12.0 53.7 11.9Q54.0 11.8 54.4 11.8L54.4 11.8Q55.1 11.8 55.6 12.1Q56.1 12.3 56.5 12.8Q56.9 13.2 57.2 13.9Q57.4 14.6 57.4 15.5L57.4 15.5Q57.4 17.2 56.6 18.1Q55.7 19.1 54.4 19.1L54.4 19.1Q54.1 19.1 53.7 19.0Q53.4 19.0 53.2 18.8Q53.0 18.7 52.8 18.5Q52.7 18.3 52.6 18.2Q52.5 18.1 52.4 17.9L52.4 17.9L52.3 17.9L52.3 21.7ZM52.3 15.5L52.3 15.5Q52.3 16.6 52.8 17.3Q53.2 18.0 54.1 18.0L54.1 18.0Q54.7 18.0 55.1 17.6Q55.6 17.3 55.8 16.7Q56.0 16.2 56.0 15.5L56.0 15.5Q56.0 14.7 55.8 14.2Q55.6 13.6 55.2 13.3Q54.7 13.0 54.1 13.0L54.1 13.0Q53.2 13.0 52.7 13.7Q52.3 14.3 52.3 15.5ZM62.0 19.1L62.0 19.1Q61.0 19.1 60.2 18.7Q59.4 18.2 59.0 17.4Q58.6 16.6 58.6 15.5L58.6 15.5Q58.6 14.7 58.9 14.0Q59.1 13.3 59.5 12.8Q59.9 12.4 60.6 12.1Q61.2 11.8 61.9 11.8L61.9 11.8Q62.4 11.8 62.8 11.9Q63.3 12.1 63.7 12.3Q64.1 12.6 64.4 13.0Q64.7 13.4 64.9 14.0Q65.0 14.6 65.0 15.4L65.0 15.4L65.0 15.9L60.0 15.9Q60.0 16.9 60.6 17.4Q61.1 18.0 62.0 18.0L62.0 18.0Q62.6 18.0 63.0 17.7Q63.5 17.5 63.6 17.0L63.6 17.0L64.9 17.2Q64.7 18.1 63.9 18.6Q63.1 19.1 62.0 19.1ZM60.0 14.8L60.0 14.8L63.7 14.8Q63.7 14.0 63.2 13.5Q62.7 13.0 61.9 13.0L61.9 13.0Q61.1 13.0 60.6 13.5Q60.0 14.1 60.0 14.8ZM68.0 14.8L68.0 14.8L68.0 19L66.6 19L66.6 11.9L67.9 11.9L67.9 13.1L68.0 13.1Q68.2 12.5 68.8 12.1Q69.3 11.8 70.1 11.8L70.1 11.8Q71.2 11.8 71.8 12.5Q72.5 13.2 72.5 14.5L72.5 14.5L72.5 19L71.1 19L71.1 14.7Q71.1 13.9 70.7 13.4Q70.3 13.0 69.6 13.0L69.6 13.0Q68.9 13.0 68.4 13.5Q68.0 14.0 68.0 14.8Z "/></g><mask id="satori_om-id-1-1"><rect x="77" y="6" width="12" height="16" fill="#fff"/></mask><g transform="translate(0,-0.9)"><path class="fg" d="M79.3 19L77.9 19L77.9 11.9L79.3 11.9L79.3 19ZM78.6 10.8L78.6 10.8Q78.3 10.8 78.0 10.6Q77.8 10.3 77.8 10.0L77.8 10.0Q77.8 9.7 78.0 9.4Q78.3 9.2 78.6 9.2L78.6 9.2Q79.0 9.2 79.2 9.4Q79.5 9.7 79.5 10.0Q79.5 10.3 79.2 10.6Q79.0 10.8 78.6 10.8ZM82.5 14.8L82.5 14.8L82.5 19L81.2 19L81.2 11.9L82.5 11.9L82.5 13.1L82.6 13.1Q82.8 12.5 83.4 12.1Q83.9 11.8 84.7 11.8L84.7 11.8Q85.8 11.8 86.4 12.5Q87.1 13.2 87.1 14.5L87.1 14.5L87.1 19L85.7 19L85.7 14.7Q85.7 13.9 85.3 13.4Q84.9 13.0 84.2 13.0L84.2 13.0Q83.5 13.0 83.0 13.5Q82.5 14.0 82.5 14.8Z "/></g><mask id="satori_om-id-1-2"><rect x="93" y="6" width="40" height="16" fill="#fff"/></mask><g transform="translate(0,-0.9)"><path class="fg" d="M94.0 9.5L95.5 9.5L95.5 19L94.0 19L94.0 9.5ZM98.8 14.8L98.8 14.8L98.8 19L97.4 19L97.4 11.9L98.8 11.9L98.8 13.1L98.8 13.1Q99.1 12.5 99.6 12.1Q100.2 11.8 100.9 11.8L100.9 11.8Q102.0 11.8 102.7 12.5Q103.4 13.2 103.4 14.5L103.4 14.5L103.4 19L102.0 19L102.0 14.7Q102.0 13.9 101.6 13.4Q101.2 13.0 100.5 13.0L100.5 13.0Q99.7 13.0 99.3 13.5Q98.8 14.0 98.8 14.8ZM107.9 19.1L107.9 19.1Q107.2 19.1 106.7 18.9Q106.1 18.6 105.7 18.2Q105.3 17.7 105.1 17.0Q104.9 16.3 104.9 15.5Q104.9 14.6 105.1 13.9Q105.3 13.2 105.7 12.8Q106.1 12.3 106.7 12.1Q107.2 11.8 107.9 11.8L107.9 11.8Q108.2 11.8 108.6 11.9Q108.9 12.0 109.1 12.1Q109.3 12.2 109.5 12.4Q109.6 12.6 109.7 12.8Q109.8 12.9 109.9 13.1L109.9 13.1L110.0 13.1L110.0 9.5L111.4 9.5L111.4 19L110.0 19L110.0 17.9L109.9 17.9Q109.8 18.1 109.7 18.2Q109.6 18.3 109.4 18.5Q109.3 18.7 109.1 18.8Q108.9 19.0 108.5 19.0Q108.2 19.1 107.9 19.1ZM108.2 18.0L108.2 18.0Q109.0 18.0 109.5 17.3Q110.0 16.6 110.0 15.5L110.0 15.5Q110.0 14.3 109.5 13.7Q109.0 13.0 108.2 13.0L108.2 13.0Q107.6 13.0 107.1 13.3Q106.7 13.6 106.5 14.2Q106.3 14.7 106.3 15.5L106.3 15.5Q106.3 16.2 106.5 16.7Q106.7 17.3 107.1 17.6Q107.6 18.0 108.2 18.0ZM116.4 19.1L116.4 19.1Q115.4 19.1 114.6 18.7Q113.8 18.2 113.4 17.4Q113.0 16.6 113.0 15.5L113.0 15.5Q113.0 14.7 113.2 14.0Q113.5 13.3 113.9 12.8Q114.3 12.4 114.9 12.1Q115.6 11.8 116.3 11.8L116.3 11.8Q116.8 11.8 117.2 11.9Q117.7 12.1 118.1 12.3Q118.5 12.6 118.8 13.0Q119.1 13.4 119.3 14.0Q119.4 14.6 119.4 15.4L119.4 15.4L119.4 15.9L114.4 15.9Q114.4 16.9 115.0 17.4Q115.5 18.0 116.4 18.0L116.4 18.0Q117.0 18.0 117.4 17.7Q117.9 17.5 118.0 17.0L118.0 17.0L119.3 17.2Q119.1 18.1 118.3 18.6Q117.5 19.1 116.4 19.1ZM114.4 14.8L114.4 14.8L118.1 14.8Q118.1 14.0 117.6 13.5Q117.1 13.0 116.3 13.0L116.3 13.0Q115.5 13.0 115.0 13.5Q114.4 14.1 114.4 14.8ZM122.3 14.8L122.3 14.8L122.3 19L121.0 19L121.0 11.9L122.3 11.9L122.3 13.1L122.4 13.1Q122.6 12.5 123.2 12.1Q123.7 11.8 124.5 11.8L124.5 11.8Q125.6 11.8 126.2 12.5Q126.9 13.2 126.9 14.5L126.9 14.5L126.9 19L125.5 19L125.5 14.7Q125.5 13.9 125.1 13.4Q124.7 13.0 124.0 13.0L124.0 13.0Q123.3 13.0 122.8 13.5Q122.3 14.0 122.3 14.8ZM130.6 11.9L132.0 11.9L132.0 13.0L130.6 13.0L130.6 16.9Q130.6 17.2 130.7 17.4Q130.7 17.6 130.8 17.7Q131.0 17.8 131.1 17.8Q131.3 17.9 131.4 17.9Q131.6 17.9 131.9 17.8L131.9 17.8L132.2 18.9Q131.8 19.1 131.3 19.1L131.3 19.1Q130.9 19.1 130.5 19.0Q130.1 18.9 129.8 18.6Q129.5 18.4 129.4 18.0Q129.2 17.7 129.2 17.2L129.2 17.2L129.2 13.0L128.2 13.0L128.2 11.9L129.2 11.9L129.2 10.2L130.6 10.2L130.6 11.9Z "/></g></svg>