<svg role="img" aria-label="Open in Indent" width="148" height="28" viewBox="0 0 148 28" xmlns="http://www.w3.org/2000/svg"><title>Open in Indent</title><defs>
    <linearGradient id="shd" x1="0" y1="0" x2="0" y2="1">
      <stop offset="0" stop-color="#fff" stop-opacity=".5"/>
      <stop offset=".1" stop-color="#fff" stop-opacity=".1"/>
      <stop offset=".9" stop-color="#000" stop-opacity=".2"/>
      <stop offset="1" stop-color="#000" stop-opacity=".35"/>
    </linearGradient>
    <linearGradient id="shd-d" x1="0" y1="0" x2="0" y2="1">
      <stop offset="0" stop-color="#fff" stop-opacity=".4"/>
      <stop offset=".1" stop-color="#fff" stop-opacity=".08"/>
      <stop offset=".9" stop-color="#000" stop-opacity=".15"/>
      <stop offset="1" stop-color="#000" stop-opacity=".3"/>
    </linearGradient>
  </defs><style><![CDATA[
    .bg { fill: #1A1A1A; }
    .shade { fill: url(#shd); }
    .fg { fill: white; }
    @media (prefers-color-scheme: dark) {
      .bg { fill: #F0F0F0; }
      .shade { fill: url(#shd-d); }
      .fg { fill: #1A1A1A; }
    }
  ]]></style><mask id="satori_om-id"><rect x="0" y="0" width="148" height="28" fill="#fff"/></mask><path x="0" y="0" width="148" height="28" class="bg" d="M6,0 h136 a6,6 0 0 1 6,6 v16 a6,6 0 0 1 -6,6 h-136 a6,6 0 0 1 -6,-6 v-16 a6,6 0 0 1 6,-6"/><rect width="148" height="28" rx="6" class="shade"/><clipPath id="satori_cp-id-0"><rect x="10" y="5" width="18" height="18"/></clipPath><mask id="satori_om-id-0"><rect x="10" y="5" width="18" height="18" fill="#fff"/></mask><g transform="translate(10, 5)"><svg width="18" height="18" viewBox="0 0 16 16" fill="none"><path fill-rule="evenodd" clip-rule="evenodd" d="M4.5 8a3.5 3.5 0 100 7H8v-3.5a3.5 3.5 0 107 0V8h-3.5a3.5 3.5 0 100-7H8v3.5a3.5 3.5 0 10-7 0V8h3.5zm0 0A3.5 3.5 0 008 4.5 3.5 3.5 0 0011.5 8 3.5 3.5 0 008 11.5 3.5 3.5 0 004.5 8z" class="fg"/></svg></g><mask id="satori_om-id-0-0"><rect x="10" y="5" width="0" height="18" fill="#fff"/></mask><mask id="satori_om-id-1"><rect x="34" y="6" width="91" height="16" fill="#fff"/></mask><g transform="translate(6.3,-0.9)"><path class="fg" d="M42.9 12.2Q43.3 13.2 43.3 14.3Q43.3 15.4 42.9 16.3Q42.6 17.2 42.0 17.8Q41.5 18.5 40.7 18.8Q39.9 19.1 39.0 19.1L39.0 19.1Q38.1 19.1 37.3 18.8Q36.5 18.5 35.9 17.8Q35.4 17.2 35.1 16.3Q34.7 15.4 34.7 14.3Q34.7 13.2 35.1 12.2Q35.4 11.3 35.9 10.7Q36.5 10.1 37.3 9.8Q38.1 9.4 39.0 9.4L39.0 9.4Q39.9 9.4 40.7 9.8Q41.5 10.1 42.0 10.7Q42.6 11.3 42.9 12.2ZM41.6 15.8Q41.8 15.1 41.8 14.3Q41.8 13.4 41.6 12.7Q41.4 12.1 41.0 11.6Q40.6 11.2 40.1 11.0Q39.6 10.7 39.0 10.7Q38.4 10.7 37.9 11.0Q37.3 11.2 37.0 11.6Q36.6 12.1 36.4 12.7Q36.2 13.4 36.2 14.3Q36.2 15.1 36.4 15.8Q36.6 16.5 37.0 16.9Q37.3 17.4 37.9 17.6Q38.4 17.8 39.0 17.8Q39.6 17.8 40.1 17.6Q40.6 17.4 41.0 16.9Q41.4 16.5 41.6 15.8ZM46.3 21.7L44.9 21.7L44.9 11.9L46.3 11.9L46.3 13.1L46.4 13.1Q46.5 12.9 46.6 12.8Q46.6 12.6 46.8 12.4Q47 12.2 47.2 12.1Q47.4 12.0 47.7 11.9Q48.0 11.8 48.4 11.8L48.4 11.8Q49.1 11.8 49.6 12.1Q50.1 12.3 50.5 12.8Q50.9 13.2 51.2 13.9Q51.4 14.6 51.4 15.5L51.4 15.5Q51.4 17.2 50.6 18.1Q49.7 19.1 48.4 19.1L48.4 19.1Q48.1 19.1 47.7 19.0Q47.4 19.0 47.2 18.8Q47.0 18.7 46.8 18.5Q46.7 18.3 46.6 18.2Q46.5 18.1 46.4 17.9L46.4 17.9L46.3 17.9L46.3 21.7ZM46.3 15.5L46.3 15.5Q46.3 16.6 46.8 17.3Q47.2 18.0 48.1 18.0L48.1 18.0Q48.7 18.0 49.1 17.6Q49.6 17.3 49.8 16.7Q50.0 16.2 50.0 15.5L50.0 15.5Q50.0 14.7 49.8 14.2Q49.6 13.6 49.2 13.3Q48.7 13.0 48.1 13.0L48.1 13.0Q47.2 13.0 46.7 13.7Q46.3 14.3 46.3 15.5ZM56.0 19.1L56.0 19.1Q55.0 19.1 54.2 18.7Q53.4 18.2 53.0 17.4Q52.6 16.6 52.6 15.5L52.6 15.5Q52.6 14.7 52.9 14.0Q53.1 13.3 53.5 12.8Q53.9 12.4 54.6 12.1Q55.2 11.8 55.9 11.8L55.9 11.8Q56.4 11.8 56.8 11.9Q57.3 12.1 57.7 12.3Q58.1 12.6 58.4 13.0Q58.7 13.4 58.9 14.0Q59.0 14.6 59.0 15.4L59.0 15.4L59.0 15.9L54.0 15.9Q54.0 16.9 54.6 17.4Q55.1 18.0 56.0 18.0L56.0 18.0Q56.6 18.0 57.0 17.7Q57.5 17.5 57.6 17.0L57.6 17.0L58.9 17.2Q58.7 18.1 57.9 18.6Q57.1 19.1 56.0 19.1ZM54.0 14.8L54.0 14.8L57.7 14.8Q57.7 14.0 57.2 13.5Q56.7 13.0 55.9 13.0L55.9 13.0Q55.1 13.0 54.6 13.5Q54.0 14.1 54.0 14.8ZM62.0 14.8L62.0 14.8L62.0 19L60.6 19L60.6 11.9L61.9 11.9L61.9 13.1L62.0 13.1Q62.2 12.5 62.8 12.1Q63.3 11.8 64.1 11.8L64.1 11.8Q65.2 11.8 65.8 12.5Q66.5 13.2 66.5 14.5L66.5 14.5L66.5 19L65.1 19L65.1 14.7Q65.1 13.9 64.7 13.4Q64.3 13.0 63.6 13.0L63.6 13.0Q62.9 13.0 62.4 13.5Q62.0 14.0 62.0 14.8Z M73.2 19L71.8 19L71.8 11.9L73.2 11.9L73.2 19ZM72.5 10.8L72.5 10.8Q72.1 10.8 71.9 10.6Q71.6 10.3 71.6 10.0L71.6 10.0Q71.6 9.7 71.9 9.4Q72.1 9.2 72.5 9.2L72.5 9.2Q72.8 9.2 73.1 9.4Q73.4 9.7 73.4 10.0Q73.4 10.3 73.1 10.6Q72.8 10.8 72.5 10.8ZM76.4 14.8L76.4 14.8L76.4 19L75.0 19L75.0 11.9L76.3 11.9L76.3 13.1L76.4 13.1Q76.7 12.5 77.2 12.1Q77.7 11.8 78.5 11.8L78.5 11.8Q79.6 11.8 80.3 12.5Q80.9 13.2 80.9 14.5L80.9 14.5L80.9 19L79.6 19L79.6 14.7Q79.6 13.9 79.2 13.4Q78.8 13.0 78.1 13.0L78.1 13.0Q77.3 13.0 76.9 13.5Q76.4 14.0 76.4 14.8Z M86.3 9.5L87.8 9.5L87.8 19L86.3 19L86.3 9.5ZM91.1 14.8L91.1 14.8L91.1 19L89.7 19L89.7 11.9L91.1 11.9L91.1 13.1L91.1 13.1Q91.4 12.5 91.9 12.1Q92.5 11.8 93.2 11.8L93.2 11.8Q94.3 11.8 95.0 12.5Q95.6 13.2 95.6 14.5L95.6 14.5L95.6 19L94.3 19L94.3 14.7Q94.3 13.9 93.9 13.4Q93.5 13.0 92.8 13.0L92.8 13.0Q92.0 13.0 91.6 13.5Q91.1 14.0 91.1 14.8ZM100.1 19.1L100.1 19.1Q99.5 19.1 99.0 18.9Q98.4 18.6 98.0 18.2Q97.6 17.7 97.4 17.0Q97.2 16.3 97.2 15.5Q97.2 14.6 97.4 13.9Q97.6 13.2 98.0 12.8Q98.4 12.3 99.0 12.1Q99.5 11.8 100.2 11.8L100.2 11.8Q100.5 11.8 100.9 11.9Q101.2 12.0 101.4 12.1Q101.6 12.2 101.8 12.4Q101.9 12.6 102.0 12.8Q102.1 12.9 102.2 13.1L102.2 13.1L102.3 13.1L102.3 9.5L103.7 9.5L103.7 19L102.3 19L102.3 17.9L102.2 17.9Q102.1 18.1 102.0 18.2Q101.9 18.3 101.7 18.5Q101.6 18.7 101.4 18.8Q101.2 19.0 100.8 19.0Q100.5 19.1 100.1 19.1ZM100.5 18.0L100.5 18.0Q101.3 18.0 101.8 17.3Q102.3 16.6 102.3 15.5L102.3 15.5Q102.3 14.3 101.8 13.7Q101.3 13.0 100.5 13.0L100.5 13.0Q99.8 13.0 99.4 13.3Q99.0 13.6 98.8 14.2Q98.6 14.7 98.6 15.5L98.6 15.5Q98.6 16.2 98.8 16.7Q99.0 17.3 99.4 17.6Q99.9 18.0 100.5 18.0ZM108.7 19.1L108.7 19.1Q107.7 19.1 106.9 18.7Q106.1 18.2 105.7 17.4Q105.3 16.6 105.3 15.5L105.3 15.5Q105.3 14.7 105.5 14.0Q105.8 13.3 106.2 12.8Q106.6 12.4 107.2 12.1Q107.9 11.8 108.6 11.8L108.6 11.8Q109.1 11.8 109.5 11.9Q110.0 12.1 110.4 12.3Q110.8 12.6 111.1 13.0Q111.4 13.4 111.6 14.0Q111.7 14.6 111.7 15.4L111.7 15.4L111.7 15.9L106.7 15.9Q106.7 16.9 107.3 17.4Q107.8 18.0 108.7 18.0L108.7 18.0Q109.3 18.0 109.7 17.7Q110.1 17.5 110.3 17.0L110.3 17.0L111.6 17.2Q111.4 18.1 110.6 18.6Q109.8 19.1 108.7 19.1ZM106.7 14.8L106.7 14.8L110.4 14.8Q110.4 14.0 109.9 13.5Q109.4 13.0 108.6 13.0L108.6 13.0Q107.8 13.0 107.3 13.5Q106.7 14.1 106.7 14.8ZM114.6 14.8L114.6 14.8L114.6 19L113.3 19L113.3 11.9L114.6 11.9L114.6 13.1L114.7 13.1Q114.9 12.5 115.5 12.1Q116.0 11.8 116.8 11.8L116.8 11.8Q117.9 11.8 118.5 12.5Q119.2 13.2 119.2 14.5L119.2 14.5L119.2 19L117.8 19L117.8 14.7Q117.8 13.9 117.4 13.4Q117.0 13.0 116.3 13.0L116.3 13.0Q115.6 13.0 115.1 13.5Q114.6 14.0 114.6 14.8ZM122.9 11.9L124.3 11.9L124.3 13.0L122.9 13.0L122.9 16.9Q122.9 17.2 123.0 17.4Q123.0 17.6 123.1 17.7Q123.3 17.8 123.4 17.8Q123.6 17.9 123.7 17.9Q123.9 17.9 124.2 17.8L124.2 17.8L124.5 18.9Q124.1 19.1 123.6 19.1L123.6 19.1Q123.2 19.1 122.8 19.0Q122.4 18.9 122.1 18.6Q121.8 18.4 121.7 18.0Q121.5 17.7 121.5 17.2L121.5 17.2L121.5 13.0L120.5 13.0L120.5 11.9L121.5 11.9L121.5 10.2L122.9 10.2L122.9 11.9Z "/></g></svg>
