<svg role="img" aria-label="View in Indent" width="128" height="28" viewBox="0 0 128 28" xmlns="http://www.w3.org/2000/svg"><title>View in Indent</title><defs>
    <linearGradient id="shd" x1="0" y1="0" x2="0" y2="1">
      <stop offset="0" stop-color="#fff" stop-opacity=".5"/>
      <stop offset=".1" stop-color="#fff" stop-opacity=".1"/>
      <stop offset=".9" stop-color="#000" stop-opacity=".2"/>
      <stop offset="1" stop-color="#000" stop-opacity=".35"/>
    </linearGradient>
    <linearGradient id="shd-d" x1="0" y1="0" x2="0" y2="1">
      <stop offset="0" stop-color="#fff" stop-opacity=".4"/>
      <stop offset=".1" stop-color="#fff" stop-opacity=".08"/>
      <stop offset=".9" stop-color="#000" stop-opacity=".15"/>
      <stop offset="1" stop-color="#000" stop-opacity=".3"/>
    </linearGradient>
  </defs><style><![CDATA[
    .bg { fill: #1A1A1A; }
    .shade { fill: url(#shd); }
    .fg { fill: white; }
    @media (prefers-color-scheme: dark) {
      .bg { fill: #F0F0F0; }
      .shade { fill: url(#shd-d); }
      .fg { fill: #1A1A1A; }
    }
  ]]></style><mask id="satori_om-id"><rect x="0" y="0" width="128" height="28" fill="#fff"/></mask><path x="0" y="0" width="128" height="28" class="bg" d="M6,0 h116 a6,6 0 0 1 6,6 v16 a6,6 0 0 1 -6,6 h-116 a6,6 0 0 1 -6,-6 v-16 a6,6 0 0 1 6,-6"/><rect width="128" height="28" rx="6" class="shade"/><clipPath id="satori_cp-id-0"><rect x="15" y="5" width="18" height="18"/></clipPath><mask id="satori_om-id-0"><rect x="15" y="5" width="18" height="18" fill="#fff"/></mask><g transform="translate(10, 5)"><svg width="18" height="18" viewBox="0 0 16 16" fill="none"><path fill-rule="evenodd" clip-rule="evenodd" d="M4.5 8a3.5 3.5 0 100 7H8v-3.5a3.5 3.5 0 107 0V8h-3.5a3.5 3.5 0 100-7H8v3.5a3.5 3.5 0 10-7 0V8h3.5zm0 0A3.5 3.5 0 008 4.5 3.5 3.5 0 0011.5 8 3.5 3.5 0 008 11.5 3.5 3.5 0 004.5 8z" class="fg"/></svg></g><mask id="satori_om-id-0-0"><rect x="15" y="5" width="0" height="18" fill="#fff"/></mask><mask id="satori_om-id-1"><rect x="39" y="8" width="75" height="13" fill="#fff"/></mask><g  ><path class="fg" d="M39.3 11L40.6 11L42.8 17.5L42.9 17.5L45.1 11L46.4 11L43.5 19L42.2 19L39.3 11ZM48.7 19L47.5 19L47.5 13L48.7 13L48.7 19ZM48.1 12.1L48.1 12.1Q47.8 12.1 47.6 11.9Q47.3 11.7 47.3 11.4L47.3 11.4Q47.3 11.1 47.6 10.9Q47.8 10.7 48.1 10.7L48.1 10.7Q48.4 10.7 48.6 10.9Q48.8 11.1 48.8 11.4Q48.8 11.7 48.6 11.9Q48.4 12.1 48.1 12.1ZM52.8 19.1L52.8 19.1Q51.9 19.1 51.3 18.7Q50.6 18.4 50.3 17.7Q50.0 17.0 50.0 16.0L50.0 16.0Q50.0 15.4 50.2 14.8Q50.4 14.2 50.7 13.8Q51.1 13.4 51.6 13.2Q52.1 12.9 52.7 12.9L52.7 12.9Q53.1 12.9 53.5 13.0Q53.9 13.1 54.2 13.4Q54.6 13.6 54.8 13.9Q55.1 14.3 55.2 14.8Q55.4 15.3 55.4 15.9L55.4 15.9L55.4 16.4L51.1 16.4Q51.1 17.2 51.6 17.7Q52.1 18.2 52.8 18.2L52.8 18.2Q53.3 18.2 53.7 17.9Q54.0 17.7 54.2 17.3L54.2 17.3L55.3 17.5Q55.1 18.2 54.4 18.7Q53.8 19.1 52.8 19.1ZM51.1 15.5L51.1 15.5L54.2 15.5Q54.2 14.8 53.8 14.3Q53.4 13.9 52.7 13.9L52.7 13.9Q52.0 13.9 51.6 14.3Q51.2 14.8 51.1 15.5ZM59.2 19L58.0 19L56.2 13L57.4 13L58.6 17.4L58.6 17.4L59.8 13L61.0 13L62.2 17.4L62.3 17.4L63.4 13L64.6 13L62.9 19L61.7 19L60.5 14.7L60.4 14.7L59.2 19Z M69.8 19L68.7 19L68.7 13L69.8 13L69.8 19ZM69.3 12.1L69.3 12.1Q69.0 12.1 68.7 11.9Q68.5 11.7 68.5 11.4L68.5 11.4Q68.5 11.1 68.7 10.9Q69.0 10.7 69.3 10.7L69.3 10.7Q69.6 10.7 69.8 10.9Q70 11.1 70 11.4Q70 11.7 69.8 11.9Q69.6 12.1 69.3 12.1ZM72.6 15.4L72.6 15.4L72.6 19L71.4 19L71.4 13L72.5 13L72.5 14.0L72.6 14.0Q72.8 13.5 73.3 13.2Q73.7 12.9 74.4 12.9L74.4 12.9Q75.3 12.9 75.9 13.5Q76.4 14.1 76.4 15.2L76.4 15.2L76.4 19L75.3 19L75.3 15.3Q75.3 14.7 74.9 14.3Q74.6 13.9 74.0 13.9L74.0 13.9Q73.4 13.9 73.0 14.3Q72.6 14.7 72.6 15.4Z M81.0 11L82.2 11L82.2 19L81.0 19L81.0 11ZM85.0 15.4L85.0 15.4L85.0 19L83.9 19L83.9 13L85.0 13L85.0 14.0L85.1 14.0Q85.3 13.5 85.7 13.2Q86.2 12.9 86.8 12.9L86.8 12.9Q87.8 12.9 88.3 13.5Q88.9 14.1 88.9 15.2L88.9 15.2L88.9 19L87.7 19L87.7 15.3Q87.7 14.7 87.4 14.3Q87.0 13.9 86.4 13.9L86.4 13.9Q85.8 13.9 85.4 14.3Q85.0 14.7 85.0 15.4ZM92.7 19.1L92.7 19.1Q92.1 19.1 91.7 18.9Q91.2 18.7 90.9 18.3Q90.5 17.9 90.4 17.3Q90.2 16.7 90.2 16.0Q90.2 15.3 90.4 14.7Q90.5 14.1 90.9 13.7Q91.2 13.3 91.7 13.1Q92.1 12.9 92.7 12.9L92.7 12.9Q93.0 12.9 93.3 13Q93.5 13.1 93.7 13.2Q93.9 13.3 94.0 13.4Q94.2 13.6 94.3 13.7Q94.3 13.8 94.4 14.0L94.4 14.0L94.5 14.0L94.5 11L95.6 11L95.6 19L94.5 19L94.5 18.1L94.4 18.1Q94.3 18.2 94.3 18.3Q94.2 18.4 94.0 18.6Q93.9 18.8 93.7 18.9Q93.5 19.0 93.3 19.0Q93.0 19.1 92.7 19.1ZM92.9 18.1L92.9 18.1Q93.7 18.1 94.1 17.5Q94.5 17.0 94.5 16L94.5 16Q94.5 15.0 94.1 14.5Q93.7 13.9 92.9 13.9L92.9 13.9Q92.4 13.9 92.1 14.2Q91.7 14.5 91.5 14.9Q91.3 15.4 91.3 16L91.3 16Q91.3 16.6 91.5 17.1Q91.7 17.6 92.1 17.8Q92.4 18.1 92.9 18.1ZM99.9 19.1L99.9 19.1Q99.0 19.1 98.4 18.7Q97.7 18.4 97.4 17.7Q97.0 17.0 97.0 16.0L97.0 16.0Q97.0 15.4 97.2 14.8Q97.4 14.2 97.8 13.8Q98.2 13.4 98.7 13.2Q99.2 12.9 99.8 12.9L99.8 12.9Q100.2 12.9 100.6 13.0Q101.0 13.1 101.3 13.4Q101.7 13.6 101.9 13.9Q102.2 14.3 102.3 14.8Q102.5 15.3 102.5 15.9L102.5 15.9L102.5 16.4L98.2 16.4Q98.2 17.2 98.7 17.7Q99.1 18.2 99.9 18.2L99.9 18.2Q100.4 18.2 100.8 17.9Q101.1 17.7 101.3 17.3L101.3 17.3L102.4 17.5Q102.2 18.2 101.5 18.7Q100.9 19.1 99.9 19.1ZM98.2 15.5L98.2 15.5L101.3 15.5Q101.3 14.8 100.9 14.3Q100.5 13.9 99.8 13.9L99.8 13.9Q99.1 13.9 98.7 14.3Q98.2 14.8 98.2 15.5ZM104.9 15.4L104.9 15.4L104.9 19L103.8 19L103.8 13L104.9 13L104.9 14.0L105.0 14.0Q105.2 13.5 105.6 13.2Q106.1 12.9 106.7 12.9L106.7 12.9Q107.7 12.9 108.2 13.5Q108.8 14.1 108.8 15.2L108.8 15.2L108.8 19L107.6 19L107.6 15.3Q107.6 14.7 107.3 14.3Q106.9 13.9 106.3 13.9L106.3 13.9Q105.7 13.9 105.3 14.3Q104.9 14.7 104.9 15.4ZM111.9 13L113.1 13L113.1 13.9L111.9 13.9L111.9 17.2Q111.9 17.5 112.0 17.6Q112.0 17.8 112.1 17.9Q112.2 18.0 112.4 18.0Q112.5 18.0 112.6 18.0Q112.8 18.0 113.0 18.0L113.0 18.0L113.3 19.0Q112.9 19.1 112.5 19.1L112.5 19.1Q112.1 19.1 111.8 19.0Q111.5 18.9 111.3 18.7Q111.0 18.5 110.9 18.2Q110.7 17.9 110.7 17.5L110.7 17.5L110.7 13.9L109.9 13.9L109.9 13L110.7 13L110.7 11.6L111.9 11.6L111.9 13Z "/></g></svg>